<?xml version="1.0" encoding="utf-8"?>
<!-- Generator: Adobe Illustrator 24.1.3, SVG Export Plug-In . SVG Version: 6.00 Build 0)  -->
<svg version="1.1" id="Layer_1" xmlns="http://www.w3.org/2000/svg" xmlns:xlink="http://www.w3.org/1999/xlink" x="0px" y="0px"
	 viewBox="0 0 1000 238" style="enable-background:new 0 0 1000 238;" xml:space="preserve">
<style type="text/css">
	.st0{fill:#162E38;}
</style>
<g>
	<path class="st0" d="M467.8,12c2.2-2.9,1.4-6.9,1.1-10.3h-0.7c-4.9,2.7-8.3,9.3-5.6,14.5C465,16.4,466.3,13.4,467.8,12z"/>
	<path class="st0" d="M445.4,50.6c-9.2,11.4-14.3,26.1-14.1,40.8c0.1,16,6.5,31.8,17.4,43.4c9.2,9.8,21.4,16.6,34.6,19
		c16.8,3.3,35-0.5,49-10.4c12.1-8.4,21.1-21.1,25-35.2c4.2-14.9,2.8-31.4-4-45.4c-6.8-14.2-19-25.6-33.6-31.5
		c-10.4-4.3-21.8-5.6-32.9-4.2C470.6,29.3,455.6,37.9,445.4,50.6z M482.8,33.1c14.3-3.2,29.7-0.8,42.3,6.5
		c9.8,5.7,17.9,14.2,23.1,24.3c6.3,12.3,8.1,26.9,4.9,40.4c-3.6,16-14.4,30.1-28.7,38.1c-12.3,7-27.2,9.2-41.1,6.2
		c-14.5-3-27.7-11.8-36.1-24c-9.5-13.4-12.9-30.9-9.2-46.9C442.7,55.8,460.9,37.6,482.8,33.1z"/>
	<path class="st0" d="M528.9,46.5c1.2-0.8-0.1-2.7-1.3-1.8C526.4,45.5,527.7,47.6,528.9,46.5z"/>
	<path class="st0" d="M541.4,124.5c1.6-1.1-0.6-3.2-1.9-2.1C538,123.4,540.1,125.6,541.4,124.5z"/>
	<path class="st0" d="M457.2,132c0.4-1.3,0.7-2.6,1.1-3.9c-1.4,0.3-2.7,0.6-4.1,1C455.1,130.2,456.1,131.2,457.2,132z"/>
	<path class="st0" d="M533.8,132c1.2-0.8,2.1-1.8,3-3c-1.3-0.3-2.7-0.7-4-1C533.1,129.4,533.4,130.7,533.8,132z"/>
	<path class="st0" d="M225.3,229.1c-2.7-6.2-2.4-14.6,2.3-19.7c3.6-3.3,9.7-3.2,13.1,0.3c1.6,1.9,2.5,4.2,3.7,6.3
		c0-3.5-0.3-7-0.7-10.4c-1.9,3.6-5.2,0.4-7.9,0.1c-7.6-1.4-15.4,4.4-16.7,11.9c-2.1,8,2.8,17.4,11.3,18.8h5.8
		c4.1-1.3,7.6-4.2,9.3-8.2c-2.7,2.1-4.6,5.3-8.2,6.1C232.7,235.3,227.4,233.4,225.3,229.1z"/>
	<path class="st0" d="M259.1,207.4c-9,5-9.9,19.1-2.2,25.6c1.9,1.7,4.4,2.7,6.8,3.3h5.1c10.2-2.3,15-15.3,9.5-23.9
		C274.6,205.8,265.5,203.4,259.1,207.4z M272.2,232.3c-3.1,3.2-8.8,3.5-11.9,0.2c-3.5-3.7-3.9-9.1-3.6-13.9c0.2-3.9,1.5-8.3,5-10.4
		c3.5-2,8.6-1.3,11,2.1c2.4,3.2,2.8,7.4,2.8,11.3C275.5,225.3,275,229.5,272.2,232.3z"/>
	<path class="st0" d="M397.2,219.6c1.3,0.9,3.9,1,3.9,3c0.3,3.6,0.1,7.2,0.2,10.8c-4.2,2.2-9.8,2.1-13.3-1.5
		c-5-5.4-5.5-14.3-1.7-20.4c2.9-4.9,10.2-5.8,14.7-2.5c1.9,1.7,3,4.1,4.4,6.2c-0.2-3.2-0.4-6.4-0.7-9.6c-0.7,0.6-1.4,1.2-2,1.9
		c-3.9-1.5-8.1-2.7-12.2-1.5c-9.6,2.3-14.7,14.8-9.5,23.2c2.1,3.9,6.3,6.1,10.5,7.2h7.3c2.3-0.7,4.6-1.6,6.8-2.6
		c0.1-4.1-0.6-8.3,0.4-12.3c1-0.7,2.1-1.3,3.2-1.9C405.3,219.5,401.2,219.4,397.2,219.6z"/>
	<path class="st0" d="M502.5,206.2c-9.1,2.9-12.4,14.8-7.9,22.7c2,3.8,5.8,6.3,9.9,7.4h5.1c7.6-1.6,12.9-9.2,12-16.9
		C521.3,210.3,511.3,202.7,502.5,206.2z M515.8,227.6c-1.1,5.6-8.1,9.3-13.1,6.1c-4.7-3.3-5.3-9.7-5-15c0.2-4.5,2-9.8,6.7-11.3
		c3.7-1.1,8.1,0.3,10,3.7C517,216.1,516.9,222.2,515.8,227.6z"/>
	<path class="st0" d="M604.9,214.2c-1.6-1.5-1.2-4.2,0.4-5.6c2.4-2.4,6.4-1.6,8.8,0.3c2.3,1.7,2.6,4.7,3.6,7.2
		c0.5-3.6,0.4-7.2,0.4-10.8c-0.8,0.6-1.6,1.2-2.4,1.9c-3.1-1.2-6.7-2.6-10-1.2c-4.2,1.4-6.8,6.7-4.4,10.6c3.1,4.8,9.2,6,13.3,9.7
		c1.9,1.6,2.2,4.9,0.3,6.7c-3.1,2.9-8.4,1.9-11.1-1c-1.3-1.9-2-4.1-2.9-6.2c-0.2,3.5-0.2,7-0.2,10.5h0.2c1.9-2.9,4.9-0.6,7.4,0h4.7
		c2.1-0.8,4.3-1.8,5.6-3.7c2.1-2.9,1.9-7.3-0.7-9.8C614.1,219.2,608.6,218,604.9,214.2z"/>
	<path class="st0" d="M528.5,16.2c2.5-5.3-0.8-12-5.9-14.5h-0.5c-0.6,3.8-1.1,8.4,2,11.4C525.4,14.1,526.4,16.7,528.5,16.2z"/>
	<path class="st0" d="M583.4,206.2c1.3,0.6,2.5,1.2,3.8,1.9c0.9,6.7,0.2,13.5,0.4,20.2c-6-7.3-12-14.7-18-22.1
		c-2.9-0.1-5.8,0-8.6,0.3c2.6,0.9,6.8,1.6,6.5,5.2c-0.1,7.2,0.3,14.5-0.2,21.7c-0.5,0.4-1.4,1.1-1.8,1.4c-0.5-0.1-1.4-0.3-1.8-0.4
		c-0.2,0.5-0.7,1.4-0.9,1.9h11.9c-0.8-0.8-1.5-1.7-2.7-1.9c-0.6-0.1-1.7-0.4-2.3-0.6c-0.5-7.1-0.1-14.2-0.2-21.4
		c6.7,7.8,13,15.9,19.6,23.8h0.6c0-7.9,0-15.8,0-23.7c0.1-1.5-0.2-3.3,0.7-4.7c1.2-0.7,2.5-1.2,3.8-1.8
		C590.4,206.1,586.9,206.1,583.4,206.2z"/>
	<path class="st0" d="M160.2,145.3c11.7,6.3,25.7,7.7,38.6,5.1c15.8-3.2,29.4-14.2,37.4-28c8-13.7,9.7-30.4,7.1-45.9
		c-3.1-18.7-16.1-35.3-33.2-43.4c-9.9-4.7-21.3-5.6-32.1-4c-19.6,3-36.7,17.1-44.1,35.4c-5.2,12.8-5.6,27.1-3.1,40.6
		C134,122,145,137.2,160.2,145.3z M157.5,51.6c4.1-7.2,10.6-13.2,18.6-15.5c9.5-2.6,20.3-1.8,28.8,3.4c7.8,4.9,12.8,13.2,15.6,21.8
		c4.1,12.6,4.5,26,3.9,39.1c-0.9,12.8-4,26.7-13.9,35.7c-12.1,12-34.2,12.9-46.3,0.4c-10-10.3-13.7-25.1-14.6-39.1
		C148.7,81.8,149.6,65.4,157.5,51.6z"/>
	<path class="st0" d="M388.2,87.7c0-0.8-0.1-2.3-0.1-3.1c-15.1,0.1-30.2,0.1-45.3,0c0,0.8-0.1,2.3-0.1,3.1c4.3,0.2,9.5,0,12.6,3.5
		c2.8,2.9,2.5,7.2,2.8,11c0.2,12.3-0.1,24.5,0.1,36.8c-12.7,7.8-29.6,9.3-42.9,2.1c-11.3-5.6-18.7-16.8-22.8-28.4
		c-5-14.8-5.3-31.2-0.8-46.1c3.9-12.5,12.2-24.6,24.9-29.3c11.8-4.2,25.7-3.8,36.6,2.7c7.7,4.5,12.8,12.2,16,20.3
		c1.1,2.4,1.4,6.6,5.1,5.3c-1-12.4-2-24.7-3-37.1c-1,0-2.1,0-3.1,0c-0.4,2.8-0.7,7.3-4.4,7.4c-5.2-0.8-9.9-3.3-14.9-4.7
		c-8.8-3-18.3-3.2-27.5-2.2c-11.1,1.3-21.8,6-30.1,13.5c-14.6,12.9-23.5,32.3-22.7,51.9c0.4,14.3,6.2,28.3,16.1,38.7
		c8.5,9.2,20.3,15,32.6,17.2c19.5,3.4,40.4,1,57.6-9.2c-0.2-12.6-0.1-25.1-0.1-37.7c0.2-4.1,0-8.6,2.5-12.1
		C380,87.9,384.4,87.7,388.2,87.7z"/>
	<path class="st0" d="M98.1,149c3.5-10.7,7-21.5,10.2-32.3c-0.7,0-2,0-2.7,0c-3.5,7.1-6.7,14.8-13.3,19.6
		c-5.6,4.5-13.2,4.9-20.1,5.1c-7.6,0-15.1,0.2-22.7-0.1c-2.7-0.1-5.8-0.6-7.3-3.1c-1.7-3.5-1.4-7.5-1.5-11.3c0-25.6,0-51.3,0-76.9
		c0.2-4.1-0.2-9.2,3.4-12.1c4.5-3.8,10.7-3.4,16.2-3.7c0-0.8,0-2.4,0-3.1C42.6,31,24.8,31,7,31v3.3c5,0,11.2-0.5,14.6,3.9
		c2.5,4.1,2.1,9.1,2.3,13.7c0,25.6,0,51.3,0,76.9c-0.3,4.3,0.2,9.1-2.3,12.7c-3.4,4.5-9.6,4.2-14.6,4.2v3.1
		C37.4,149,67.7,148.8,98.1,149z"/>
	<path class="st0" d="M691,116.5c-2,3.7-3.5,7.7-5.8,11.2c-3.7,6.2-9.6,11.4-16.9,12.7c-9.1,1.6-18.3,0.9-27.4,1
		c-3.8-0.2-7.8,0.3-11.3-1.3c-3.6-2-3.4-6.7-3.7-10.3c0-26.7-0.1-53.3,0-80c0.3-4-0.1-8.8,3.2-11.8c4.4-4,10.8-3.8,16.4-3.8
		c0-0.8,0.1-2.5,0.1-3.3c-17.7,0-35.5,0-53.2,0c0,0.8,0,2.4,0,3.2c4.3,0.2,9.1-0.5,12.7,2.3c4,2.7,3.8,8.2,4.1,12.4
		c0.1,27.3,0.1,54.6,0,81.9c-0.2,4.1,0,9.2-3.5,12.1c-3.6,3.2-8.8,2.9-13.3,2.9c0,0.8,0,2.3,0,3.1c30.4,0,60.7,0,91.1,0
		c3.4-10.7,6.8-21.3,10.2-32C693,116.8,691.7,116.6,691,116.5z"/>
	<path class="st0" d="M763.3,145.8c-5.1,0.2-11-0.2-14.7-4.2c-2.3-3.1-1.8-7.2-2-10.8c-0.4-17-0.1-34.1-0.2-51.2
		c0.1-11.1-0.3-22.3,0.3-33.4c0.3-3.3,0.6-7.2,3.5-9.3c3.7-3.1,8.7-2.4,13.2-2.7c0-0.8,0-2.3,0-3.1c-16.9,0-33.7,0-50.6,0
		c0,0.7,0,2.3,0,3c5.3,0.2,11.6,0.1,15.2,4.7c2.1,4,1.6,8.8,1.9,13.2c0,26,0.1,51.9,0,77.9c-0.4,3.9,0,8.3-2.2,11.7
		c-3.5,4.5-9.7,4.2-14.8,4.3c0,0.8,0,2.3,0,3.1c16.9,0,33.7,0,50.6,0C763.4,148.1,763.4,146.6,763.3,145.8z"/>
	<path class="st0" d="M832.1,148.8c0-0.7,0-2.2-0.1-3c-4.7,0-9.8-0.1-13.6-3.2c-3.1-2.2-2.9-6.5-3.2-9.9c-0.2-14,0-27.9-0.1-41.8
		c7.7,0,15.4-0.1,23,0c3.9,0.1,8.2,1.2,10.7,4.4c2.8,3.4,2.9,7.9,3.1,12.1c0.8,0,2.4,0,3.2,0c0-13.3,0-26.7,0-40c-0.8,0-2.4,0-3.2,0
		c-0.6,4.2-1.2,8.6-3.8,12.1c-2.6,3.3-7,4-11,4.1c-7.3,0-14.7,0-22,0c-0.1-15.4,0.1-30.7-0.1-46.1c8.7-0.4,17.4-0.1,26.1-0.2
		c6.2,0.1,13,0.2,18,4.4c4.6,3.6,6.3,9.4,8.1,14.7c0.7,0.1,2.2,0.4,3,0.6c-0.2-8.7-0.9-17.4-1.2-26.1c-29.1,0-58.3,0-87.4,0
		c0,0.8,0,2.5,0,3.3c5.3-0.3,11.8,0,15.2,4.8c1.7,3.3,1.4,7.3,1.6,10.9c0,25.3,0,50.6,0,75.9c-0.2,5.1,0.5,10.7-2,15.4
		c-3.4,4.8-9.8,4.5-15,4.6c0.1,1,0.1,2,0.2,3.1C798.5,148.8,815.3,149.1,832.1,148.8z"/>
	<path class="st0" d="M989.8,119.3c-4.3,7.3-8.4,15.4-15.9,20c-6.4,3.8-14.2,3-21.4,3.2c-7.4-0.2-14.9,0.5-22.3-0.5
		c-3.8-0.8-4.5-5-4.4-8.3c-0.2-14.4,0-28.9-0.1-43.3c9.6,0,19.2-0.1,28.8,0c4.8,0.1,10.2,1.4,12.8,5.7c1.9,3.6,2.1,7.7,2.8,11.7
		c0.8,0,2.4,0,3.2,0c0-13.7,0.1-27.3,0-41c-0.8,0-2.3,0-3,0c-0.6,4.6-1.1,9.6-4.3,13.2c-2.9,3.2-7.5,3.5-11.6,3.8
		c-9.5,0.2-19,0-28.5,0.1c-0.2-15.5-0.2-31.1,0-46.6c11.9,0.1,23.7-0.1,35.6,0.1c4.7,0.1,9.9,0.6,13.4,4.1c4.3,4,4.4,10.2,6.3,15.3
		c0.8,0.1,2.4,0.2,3.2,0.3c-0.7-8.7-0.7-17.4-1.4-26.1c-30.3,0-60.5,0-90.7,0c0,0.8,0,2.4,0,3.3c4.9,0.1,10.8-0.6,14.5,3.3
		c2.3,3.3,2,7.6,2.3,11.4c0,27.3,0,54.6,0,81.9c-0.2,3.8,0.2,8.1-2.4,11.2c-3.8,3.6-9.5,3.9-14.4,3.8c0,0.8,0,2.3,0,3
		c30.3,0,60.6,0.1,90.8-0.1c3.2-9.5,6.3-19.1,9.9-28.4v-0.9C992.2,119.4,990.6,119.4,989.8,119.3z"/>
	<path class="st0" d="M505,36.8c1.6-1.1-0.6-3.2-1.9-2.1C501.6,35.7,503.7,37.8,505,36.8z"/>
	<path class="st0" d="M479.1,38.7c0.5-1.6,0-2.1-1.7-1.6C476.9,38.6,477.5,39.1,479.1,38.7z"/>
	<path class="st0" d="M462.8,46.8c1.5,0.1,1.4-2.3,0-2.3C461.3,44.4,461.4,46.8,462.8,46.8z"/>
	<path class="st0" d="M457.3,49.7c-1.3,0.6-2.3,1.5-2.9,2.8c1.3,0.3,2.5,0.6,3.8,0.9C458,52.2,457.7,51,457.3,49.7z"/>
	<path class="st0" d="M533.7,49.7c-0.3,1.3-0.6,2.5-0.9,3.8c1.3-0.3,2.6-0.6,3.8-1C536,51.3,535,50.3,533.7,49.7z"/>
	<path class="st0" d="M535.2,182.6l0.2-0.5c-2-5.3-7-9.8-12.9-9.9c2.7-1.1,5.3-2.2,8-3.3c3,3,6.6,5.7,10.9,6.6
		c3.1,0.5,6.1-0.5,9-1.4c-2.8-5-8.3-8.6-14.2-8c2.3-1.7,4.7-3.2,7.1-4.6c3.3,2.2,6.9,4.2,11,4.5c3.4,0.2,6.4-1.4,9.3-2.9
		c-3.9-4.6-10.5-7.3-16.3-4.8c2.4-2.1,4.8-4.3,7.2-6.5c3.6,1.7,7.6,3,11.7,2.5c3.3-0.4,6-2.4,8.3-4.6c-4.9-3.2-11.3-5.1-16.5-1.5
		c2-2.6,4.1-5.1,6-7.7c6.6,2.2,15.2,1.3,18.8-5.5c-5.1-2.1-11.3-2.7-15.8,1c1.5-2.8,3-5.6,4.6-8.3c3.8,0.3,7.8,0.3,11.2-1.6
		c2.6-1.4,4.2-4.1,5.8-6.4c-5.2-2.2-11.6-1-15.3,3.4c1.1-3,2-6.1,3.1-9.1c6.8,0.1,13.9-3.9,15-11.1c-5.4-0.3-11.2,1.4-14.1,6.2
		c0.6-3.1,1.1-6.3,1.5-9.4c6.5-1.3,12.5-6.1,12.8-13.2c-5.2,0.4-10.7,2.8-12.5,8.1c-0.2-3.3-0.4-6.5-0.6-9.8
		c6.1-2.3,11.5-8.1,10.1-15c-4.9,1.6-10.4,4.9-10.4,10.8l-0.4-1.8c-1.3,1.3-1.9,2.9-1.4,4.8c-1.2-2.2-2.3-4.7-4.5-6
		c-2.7-1.8-6.1-2.1-9.2-2.3c0.9,2.7,1.8,5.6,4,7.6c2.8,2.5,6.5,3.4,10.1,4.1c0.3,3.3,0.4,6.7,0.1,10c-1.4-2.1-2.2-4.8-4.4-6.3
		c-2.3-1.8-5.3-2.6-8.1-3.4c-0.4,7.2,5.5,12.5,12,14.2c-0.3,3.3-0.8,6.6-1.8,9.8c-0.4-6-5.1-10.5-10.6-12c0,2.9-0.3,5.9,1.1,8.6
		c1.9,3.4,5.1,5.8,8.5,7.7c-1,3.3-2.1,6.5-3.4,9.7c0.6-6-2.9-12.3-8.8-14.1c-0.4,2.6-1.1,5.2-0.4,7.8c1.1,4.1,4.2,7.2,7.3,9.9
		c-1.5,2.7-3,5.5-4.9,8c1.5-5.7-1.4-11.9-6.4-14.9c-1.1,2.9-2.3,5.9-1.7,9c0.7,3.8,2.9,7,5.3,9.9c-1.9,2.3-3.7,4.6-5.7,6.9
		c0.4-2.5,1.1-5.1,0.6-7.6c-0.7-3.1-2.5-5.7-4.2-8.3c-5.6,5.3-4.2,13.9-0.4,19.8c-2.3,2-4.6,4-7,5.9c0.9-2.2,2.3-4.3,2.3-6.7
		c0.1-3.5-1.4-6.8-2.8-10c-2.5,1.6-4.2,4.3-5.2,7.1c-1.3,4.2-0.1,8.6,1.4,12.6c-2.7,1.8-5.5,3.4-8.3,4.9c1.5-2.1,3.5-4.1,3.9-6.7
		c0.7-3.5-0.2-7.1-1.1-10.6c-3.1,1.7-5.8,4.3-7,7.6c-1.3,3.8-0.8,7.9-0.3,11.8c-2.8,1.1-5.6,2.1-8.5,2.8c5.5-3.6,6.8-10.6,5.5-16.7
		c-2.9,1.4-5.9,3-7.8,5.8c-2.3,3.6-2.6,7.9-2.9,12c-5.4,1.1-10.7,2.6-15.7,4.8c-1,0.3-2.2,1.1-3.3,0.5c-5.5-2.3-11.2-4.2-17.1-5.3
		c-0.3-4.1-0.6-8.5-2.9-12.1c-1.8-2.8-4.8-4.4-7.7-5.8c-1.5,6.1,0,13.1,5.5,16.8c-2.9-0.7-5.8-1.8-8.6-2.9c0.5-3.9,0.9-7.9-0.3-11.7
		c-1.2-3.4-4-5.8-6.9-7.7c-1,3.4-1.8,7-1.1,10.6c0.5,2.7,2.5,4.8,4,6.9c-2.8-1.5-5.6-3.2-8.4-4.9c1-3.2,2-6.5,1.8-9.9
		c-0.2-4-2.5-7.5-5.6-10c-2.9,5.1-4.2,11.7-0.5,16.8c-2.4-1.9-4.8-3.8-7-5.9c1.3-2.5,2.6-5,3.1-7.8c1.1-4.3-0.5-8.9-3.5-12
		c-2,3-4.1,6.2-4.5,9.9c0,2.1,0.6,4.1,1,6.1c-2.1-2.2-4-4.6-5.8-6.9c2.4-2.9,4.6-6.2,5.3-9.9c0.5-3.1-0.7-6.1-1.6-9
		c-5.3,2.8-7.9,9.3-6.4,15c-1.9-2.6-3.4-5.4-4.9-8.1c2.9-2.5,5.8-5.3,7.1-9.1c0.8-3,0.3-6.2-0.4-9.2c-2.9,1.9-5.8,4-7.4,7.2
		c-1.2,2.3-0.9,4.9-1.1,7.4c-1.4-3.1-2.5-6.4-3.4-9.7c3.3-1.9,6.6-4.2,8.4-7.7c1.4-2.6,1.1-5.7,1.2-8.6c-5.5,1.6-10.3,6-10.6,12
		c-1.2-3.1-1.5-6.5-1.9-9.8c6.5-1.6,12.4-7,12-14.2c-2.9,0.7-5.8,1.6-8.2,3.4c-2.4,1.6-3,4.5-4.3,6.9c-0.3-3.5-0.1-6.9-0.1-10.4
		c3.6-0.9,7.5-1.7,10.4-4.3c2.2-1.9,3-4.7,3.9-7.4c-5.9-0.6-11.8,2.5-13.8,8.2c0.3-3.8,1.1-7.5,1.9-11.2c3.3-0.1,6.7-0.3,9.7-1.8
		c2.9-1.4,4.7-4.3,5.8-7.2c-5.3-0.9-10.8,0.4-14.3,4.7c1-3.3,2.3-6.5,3.6-9.7c6.2,2,13.4,0.1,16.7-5.7c-5.4-2.4-11.7-1.4-15.7,3.1
		c1.8-3.5,3.8-6.8,5.9-10.1c5.4,2.3,12.4,2.9,16.6-1.9c0.6-2.3-2.8-2.2-4.2-2.9c-4.1-1.5-8,0.8-11.2,3.2c2.3-3.5,5.2-6.5,8-9.7
		c5.1,3.3,12.7,5.2,17.4,0.1c-2.5-1.4-4.9-3.2-7.8-3.6c-2.4-0.3-4.7,1-7,1.4c1.5-1.8,4.1-2.9,4.9-5.3c-1.4,0.9-2.7,1.9-4,2.9
		c3-4.5,1.6-9.9-0.9-14.2c-5.3,3.9-4.8,11.4-1.8,16.7c-2.3,2.4-4.6,4.7-6.9,7.1c1.4-4.9-0.9-9.6-4.1-13.2c-4.2,5.1-2.7,12.3,1.2,17
		c-1.9,3-3.7,6-5.7,9c1.1-5.4-2.1-10.2-6.4-13.1c-1.4,3.7-2.1,8.1,0.3,11.7c1,2.7,4.6,4.2,4,7.3l-0.6-0.1c-1.1,2.6-2.1,5.3-2.9,8
		c-0.3-5.5-4-10.1-9-12.2c-0.4,2.5-0.8,5.1,0,7.6c1.3,3.7,4.3,6.4,7.4,8.6c-0.7,3.5-1.5,7-2.2,10.5c-0.6-5.7-5.6-9.5-10.9-10.8
		c0.2,2.8,0.2,5.9,1.8,8.4c2.1,3.2,5.5,5,8.7,6.9c-0.5,3.1-0.6,6.2-0.6,9.3c-2.1-5-7.3-7.6-12.6-8c0.5,2.8,1.1,5.6,3,7.8
		c2.5,2.9,6.3,4.3,9.9,5.4c0.4,3.1,0.8,6.3,1.4,9.4c-3-4.9-8.8-6.5-14.2-6.2c0.9,2.8,2.1,5.8,4.5,7.6c3.1,2.4,7.1,3.1,10.8,3.6
		c0.7,3,1.7,5.9,2.8,8.7c-3.9-4.2-10.1-5.3-15.4-3.4c1.5,2.2,2.9,4.7,5.3,6.2c3.5,2.2,7.8,2.2,11.8,1.9c1.5,2.7,3,5.5,4.6,8.2
		c-4.6-3.6-10.7-3.1-15.9-0.9c1.2,1.7,2.5,3.4,4.4,4.5c4.2,2.9,9.8,2.2,14.5,1c1.9,2.6,4.1,5.1,6,7.7c-5.2-3.6-11.6-1.6-16.4,1.5
		c2.6,2.4,5.8,4.7,9.6,4.7c3.7,0.1,7.2-1.1,10.5-2.6c2.3,2.2,4.8,4.4,7.2,6.5c-2.6-0.5-5.3-1.5-7.9-0.6c-3.2,0.9-5.9,3-8.5,5
		c2.7,2.1,6,3.4,9.5,3.3c4-0.3,7.6-2.3,10.9-4.5c2.5,1.6,5,3.2,7.5,4.7c-6-0.9-11.9,2.8-14.6,8c2.9,0.8,6,1.9,9,1.3
		c4.2-0.9,7.7-3.6,10.8-6.6c2.4,1.1,5,1.9,7.2,3.3c-5.8,0.5-10.6,5.1-12.3,10.5c3.3,0.3,6.8,0.8,10-0.5c3.8-1.8,6.8-5,9.1-8.4
		c5.8,0.9,11.4,2.7,16.9,5c-3.7,3-8.1,5.2-11.5,8.6c0.9,0.9,1.8,1.9,2.8,2.8c3.8-3.6,8.1-6.7,12.6-9.4c4.8,2.3,9.1,5.5,12.9,9.3
		c1-0.8,2-1.6,3.1-2.4c-3-4.1-7.9-5.7-11.4-9.1c5.3-2.2,10.8-3.7,16.4-5c2.4,2.9,4.8,6,8.1,7.9C527.5,183.4,531.6,183.1,535.2,182.6
		z"/>
	<path class="st0" d="M546,66.3c0.5-1.6-0.1-2.2-1.7-1.7C543.8,66.3,544.4,66.8,546,66.3z"/>
	<path class="st0" d="M441.2,83c1.2-0.7-0.1-2.8-1.3-1.9C438.7,81.9,440,83.9,441.2,83z"/>
	<path class="st0" d="M550.5,83.2c1.4,0.1,1.4-2.4,0-2.3C549.1,80.9,549.1,83.2,550.5,83.2z"/>
	<path class="st0" d="M439.8,98.6c-0.5,1.6,0,2.2,1.6,1.7C441.9,98.7,441.4,98.1,439.8,98.6z"/>
	<path class="st0" d="M451.4,124.6c1.7-0.9-0.2-3.2-1.6-2.2C448,123.2,450,125.7,451.4,124.6z"/>
	<path class="st0" d="M527.5,135c-0.5,1.6,0.1,2.2,1.6,1.6C529.6,135,529,134.5,527.5,135z"/>
	<path class="st0" d="M469.5,139.6c-0.6,1.6,0,2.1,1.6,1.7C471.6,139.7,471.1,139.1,469.5,139.6z"/>
	<path class="st0" d="M486.3,144.6c-1.6,0.5-0.7,3,0.9,2.4C488.8,146.5,487.8,143.9,486.3,144.6z"/>
	<path class="st0" d="M503.3,145c-1.2,1.3,1.2,2.9,2.1,1.5C506.4,145.3,504.2,143.7,503.3,145z"/>
	<path class="st0" d="M646.2,233.7c-3.6,0.7-7.2,0.3-10.8,0.2c-0.3-4.3-0.2-8.6-0.2-12.9c3,0.1,6-0.2,8.9,0.4c1.8,0.6,1.8,3,2.8,4.3
		c0.3-3.6,0.3-7.2,0.1-10.8c-0.9,1.3-1.2,3.1-2.5,4.1c-3.1,0.8-6.3,0.4-9.4,0.4c0-3.9,0-7.7,0-11.6c3.8,0.1,7.6-0.4,11.3,0.3
		c1.6,1.1,2.1,3.3,3.2,4.9c-0.1-2.3-0.2-4.6-0.2-6.9c-7.7-0.1-15.4,0-23.1,0c1.6,0.9,4.7,1,4.4,3.5c0.1,8.1,0.3,16.2-0.1,24.3
		c-0.6,0.2-1.7,0.6-2.2,0.8c-0.3-0.1-0.9-0.2-1.2-0.2c-0.4,0.5-1.1,1.4-1.4,1.9h23.9l-0.1-0.9c0.7-2.5,1.6-5,2.3-7.5
		C650.1,229.8,648.8,232.7,646.2,233.7z"/>
	<path class="st0" d="M335.3,233.7c-3.1,0.1-6.7,0.8-9.4-0.7c-0.6-4.5-0.1-9-0.3-13.5c0.1-3.8-0.4-7.6,0.4-11.4
		c1.5-0.8,3.2-1.3,4.9-1.9c-4.8-0.3-9.6-0.4-14.4,0.2c1.3,0.4,2.7,0.7,4,1.2c1.2,1.3,0.7,3.4,0.9,5c-0.1,7.1,0.2,14.2-0.3,21.2
		c-0.6,0.1-1.7,0.4-2.3,0.6c-1.2,0.2-2,1.1-2.8,1.9h24.2l0-1c0.7-2.8,1.6-5.5,2.3-8.2C340.6,229.7,339.1,233.6,335.3,233.7z"/>
	<path class="st0" d="M547.8,206.2c1.5,1,4.4,1.1,4.2,3.5c0.2,5.9,0.3,11.9-0.1,17.9c-0.3,7.4-12.5,9.8-15.6,3.2
		c-1.5-4.5-0.9-9.4-1-14.1c0.1-2.9-0.4-6,0.7-8.7c1.3-0.7,2.7-1.1,4.1-1.5c-4.5-0.4-9.1-0.3-13.6-0.1c1.6,0.8,4.2,0.7,4.5,2.8
		c0.7,6.7-0.5,13.6,0.7,20.3c0.8,3.9,4.5,6.3,8.2,6.9h5.3c3.9-0.6,7.8-3.2,8.5-7.3c1-6.4,0-12.9,0.6-19.4c0-2.3,2.8-2.5,4.3-3.4
		C555,206.1,551.4,206.1,547.8,206.2z"/>
	<path class="st0" d="M760.3,219.5c1.4,0.6,2.8,1.2,4.1,2.1c0.6,3.9,0.2,8,0.3,12c-3.8,1.5-8.4,2.2-11.9-0.5
		c-6.2-4.9-7.1-14.7-3.2-21.3c2.6-4.5,8.8-5.9,13.4-3.7c2.9,1.3,4.1,4.5,5.7,7c0-3.3-0.3-6.6-0.5-9.9c-0.5,0.6-1.4,1.6-1.8,2.2
		c-4.3-1.7-9.1-2.9-13.5-1.2c-8.5,2.9-13.1,13.8-9,21.8c2.1,4.5,6.6,7.2,11.3,8.3h7.4c2.1-0.7,4.2-1.6,6.4-2.4
		c0.1-3.8-0.2-7.6,0.2-11.4c0.1-1.7,2.2-2,3.3-2.9C768.3,219.4,764.3,219.4,760.3,219.5z"/>
	<path class="st0" d="M784.8,217.9c-0.1,2-0.1,4-0.1,6.1c63.6,0,127.1,0,190.7,0c0-2-0.1-4-0.2-6.1
		C911.7,218,848.3,217.9,784.8,217.9z"/>
	<path class="st0" d="M481.8,11.3c-4.4-2.8-10.2-1.3-12.9,3.1C473.5,16.5,478.5,14.9,481.8,11.3z"/>
	<path class="st0" d="M367.8,233.5c-3.7,1.1-7.7,0.5-11.4,0.4c-0.3-4.3-0.2-8.6-0.1-13c3,0.1,6-0.2,9,0.4c1.7,0.8,1.9,3.1,2.8,4.5
		c0.1-3.6,0.1-7.3,0-10.9c-0.9,1.3-1.3,3-2.5,4c-3,0.8-6.3,0.4-9.4,0.4c0-3.8,0-7.7,0-11.5c3.8,0.1,7.6-0.4,11.4,0.3
		c1.7,1.1,2.1,3.3,3.2,4.9c-0.1-2.3-0.2-4.6-0.2-7c-7.7-0.1-15.4,0-23.1,0c1.6,0.9,4.7,1,4.4,3.5c0.1,8.1,0.3,16.1-0.1,24.2
		c-0.6,0.2-1.7,0.6-2.3,0.8c-0.3-0.1-0.9-0.2-1.2-0.2c-0.3,0.5-1,1.4-1.4,1.9H371l-0.6-0.9c0.9-2.5,1.8-5,2.5-7.6
		C371.2,229.8,369.9,232.1,367.8,233.5z"/>
	<path class="st0" d="M513,14.2c2.8,1.8,6.2,1.2,9.1,0.2c-2.7-4-7.7-5.7-12.2-3.7C509.5,12.6,511.9,13.4,513,14.2z"/>
	<path class="st0" d="M536.5,35c2.2,1.1,4.4,2.6,6.9,2.7c3.6,0.2,7.1-1.4,10.1-3.4c3.2,2.8,5.9,6.2,8.4,9.7c-2-1.2-3.8-2.8-6.1-3.4
		c-3.6-0.8-7.1,0.7-10.3,2.3c2,1.7,4.1,3.7,6.8,4.3c3.7,0.8,7.3-0.4,10.8-1.6c1.9,3.1,3.9,6.2,5.2,9.6c-3.9-4.2-10-4.7-15.1-2.5
		c1.9,2.3,3.9,4.9,7,5.8c3.2,1,6.6,0.6,9.9,0.1c1.3,3.4,2.7,6.8,3.8,10.3c-1.8-1.7-3.3-4-5.8-4.8c-2.8-1.1-5.9-0.7-8.8-0.6
		c1.8,6.8,9.2,9.5,15.6,9c0.5,2.3,0.9,4.6,1.1,7c0.5-0.7,1-1.4,1.6-2.1c-0.6-2.4-1.1-4.7-1.6-7.1c3-2.1,5.8-4.6,7.2-8
		c1-2.6,0.5-5.4,0.3-8.1c-5,1.9-9,6.5-8.9,12c-1.2-3.3-2.6-6.6-4-9.9c4.9-4.1,7.6-11,4.5-17c-4.2,2.9-7.5,7.7-6.4,13
		c-2-2.9-3.8-6-5.7-9c3.9-4.8,5.3-11.9,1.2-17.1c-3.4,3.5-5.6,8.4-4.2,13.3c-2.3-2.4-4.5-4.8-6.9-7.1c1.3-2.8,2.3-5.8,2.3-8.9
		c-0.1-3.1-2-5.7-4-7.8c-2.7,4.2-4.1,9.8-1,14.3c-1.2-1.3-2.7-2-4.3-2.2c1.8,1.6,3.5,3.1,5.3,4.8C546.4,29.7,540.2,30.8,536.5,35z"
		/>
	<path class="st0" d="M513.6,38.6c0.4-1.6-0.2-2.1-1.7-1.5C511.4,38.7,512,39.2,513.6,38.6z"/>
	<path class="st0" d="M522.6,17.2c-3.5,0.7-5.7,3.9-7.8,6.5c5.5,2.8,13-0.5,14.9-6.2c3.5,1.7,6.8,3.7,10.4,5.3
		c-2.2,0.6-4.5,0.1-6.7,0.4c-3,0.8-5.4,3-7.5,5.2c2.1,0.9,4.3,1.8,6.6,1.7c3.9-0.1,7.1-2.6,10-5c1.2,0.8,2.3,1.7,3.6,2.4
		c-0.3-2.1-2.9-2.8-4.4-4.1c1.3-4.4,1.9-9.9-1.5-13.6c-0.9-0.8-1.7-2.5-3.1-2c-2,4.5-1.6,9.8,1.5,13.7c-2.9-1.3-5.6-3.6-8.8-4.1
		C527.4,16.9,525,16.9,522.6,17.2z"/>
	<path class="st0" d="M448.3,25.2c3.6,2.7,7.7,5.9,12.4,4.7c1.3-0.5,3.9-0.3,3.7-2.2c-3.3-3.7-8.5-6.1-13.3-3.8l0.2-1.5
		c3.3-1,6.2-3.1,9.2-4.7c3.4,5,9.7,9,15.7,6.1c-2.1-2.6-4.3-5.8-7.7-6.5c-2.7-0.4-5.4-0.2-8,0.1c-2.8,1.1-5.4,2.8-8.1,4.1
		c2-2.9,3.7-6.3,2.7-9.9c-0.6-1.2-0.1-3.9-2-3.9c-4.9,3.4-5.9,10.1-3.6,15.4c-1.5,1.3-3.1,2.7-4.7,3.9
		C446.2,27.3,447.1,25.8,448.3,25.2z"/>
	<path class="st0" d="M498.7,34.4c-2.2,0-4.3,0-6.4,0c1.1,1.8,2.1,3.7,3.3,5.5C496.6,38,497.7,36.2,498.7,34.4z"/>
	<path class="st0" d="M487.6,36.1c2.5-0.4-1.2-3.8-1.1-1.1C483.9,35.1,487.3,38.7,487.6,36.1z"/>
	<path class="st0" d="M471.1,41.9c0.5-1.6,0-2.1-1.7-1.6C469,41.9,469.5,42.4,471.1,41.9z"/>
	<path class="st0" d="M521.6,42c0.5-1.6,0-2.1-1.6-1.7C519.4,41.9,519.9,42.4,521.6,42z"/>
	<path class="st0" d="M451.4,58.8c0.5-1.6-0.1-2.1-1.7-1.6C449.2,58.8,449.8,59.3,451.4,58.8z"/>
	<path class="st0" d="M541.3,58.8c0.6-1.6,0-2.1-1.6-1.6C539.1,58.8,539.7,59.3,541.3,58.8z"/>
	<path class="st0" d="M446.7,66.4c0.5-1.6,0-2.2-1.6-1.6C444.5,66.3,445.1,66.9,446.7,66.4z"/>
	<path class="st0" d="M305.8,233.5c-3.3,0.5-6.7,0.5-9.9,0.1c-1.4-1.7-0.7-4.2-0.9-6.2c0.3-6.4-0.5-12.9,0.4-19.2
		c1.5-0.8,3.2-1.4,4.8-1.9c-4.7-0.3-9.5-0.2-14.2,0c1.8,0.8,5,0.8,4.7,3.5c0.1,8,0.3,16.1-0.1,24.1c-0.6,0.1-1.7,0.4-2.3,0.6
		c-1.1,0.3-1.9,1.2-2.8,1.9h24l0.3-1c0.8-2.7,1.5-5.3,2-8.1C310,229.5,308.9,232.9,305.8,233.5z"/>
	<path class="st0" d="M443.5,74.4c0.5-1.6-0.1-2.2-1.6-1.6C441.3,74.4,441.9,75,443.5,74.4z"/>
	<path class="st0" d="M549.3,74.4c0.5-1.6,0-2.2-1.6-1.7C547.1,74.4,547.7,74.9,549.3,74.4z"/>
	<path class="st0" d="M488.4,90.9l-0.1,1.4c-1,0.9-1.6,2.1-2.3,3.2c-7.7,0.6-14.9-2.8-22.5-2.7c7.4,0.4,14.5,2.9,21.8,3.4
		c-3.5,5.4-7.9,10.4-11.1,16c6.9-6.7,13.7-13.6,20.4-20.6c0.9,1.8,0.7,3.9,0,5.8l0,0.2c-1.5,1-3,1.9-4.5,2.9
		c0.9,9,2.9,17.9,4.1,26.9c-0.3,2,0.6,3.9,1.4,5.7c0.9-5.7-0.3-11.4,0.1-17.1c0.3-6.1-0.6-12.3,0.6-18.4c1.2,1,2.5,1.9,3.8,2.7
		c0.3,6-1.9,11.7-1.9,17.7c0.4-4.3,1.1-8.6,1.9-12.9c-0.1-1.5,1-2.5,1.8-3.5c4.8,3.7,9.7,7.3,14.8,10.7c-0.7-1-1.4-2-2.3-2.8
		c-6.2-5.8-12-11.9-18-17.8l0.2-0.7c1.7,0,3.5,0,5.2,0c1.2,1.8,2.4,3.5,3.5,5.2c10.8-1.6,21.6-3.4,32.4-5.2
		c-11.9-0.7-23.8-0.1-35.7-0.3c1-1.6,2-3.2,3.1-4.8c5.9,0.7,11.7,1.4,17.5,2.5c2.2,0.5,4.4,1.5,6.6,0.6c-6.2-0.5-12.3-1.8-18.5-2.7
		c-1.8,0.1-3-1.3-4.4-2.3c3.5-4.7,7.4-9.2,10.1-14.5c-6.8,6.7-13.4,13.6-20.2,20.3c-0.6-1.9-0.7-3.9,0-5.8c1.6-1.1,3.1-2.2,4.7-3.4
		c-1.5-8.8-3-17.6-4.3-26.4c0.2-2.2-0.7-4.3-1.2-6.4c-1.5,11.9,0.8,24.1-0.8,36.1c-1.2-1-2.5-1.8-3.8-2.6
		c-0.3-8.3,2.8-16.1,2.8-24.3c-0.3,7.2-2.6,14.1-3,21.2c-0.5,0.7-1.1,1.3-1.7,1.9c-4.7-3.8-9.5-7.5-14.8-10.5
		c6.7,6.8,13.6,13.6,20.4,20.3c-2,1-4.4,0.7-6.3-0.3c-0.8-1.7-2-3.1-3-4.5c-10.6,2.3-21.4,3.3-31.9,5.6
		C465,91.2,476.7,90.7,488.4,90.9z"/>
	<path class="st0" d="M439.2,87.5c0,2.1,0,4.2-0.1,6.4c1.9-1,3.7-2,5.5-3.1C442.8,89.7,441,88.6,439.2,87.5z"/>
	<path class="st0" d="M551.9,87.5c-1.8,1-3.7,2.1-5.5,3.1c1.8,1.2,3.5,2.3,5.4,3.3C551.9,91.9,551.9,89.7,551.9,87.5z"/>
	<path class="st0" d="M549.6,98.6c-0.5,1.6,0,2.2,1.6,1.6C551.8,98.6,551.2,98,549.6,98.6z"/>
	<path class="st0" d="M441.8,107.2c-0.6,1.6,0,2.1,1.6,1.6C444,107.2,443.5,106.7,441.8,107.2z"/>
	<path class="st0" d="M547.6,107.2c-0.5,1.6,0.1,2.1,1.7,1.7C549.7,107.3,549.2,106.7,547.6,107.2z"/>
	<path class="st0" d="M445.1,115.2c-0.5,1.6,0.1,2.1,1.7,1.6C447.2,115.3,446.7,114.7,445.1,115.2z"/>
	<path class="st0" d="M544.4,115.2c-0.6,1.6,0,2.1,1.6,1.6C546.5,115.2,546,114.7,544.4,115.2z"/>
	<path class="st0" d="M461.9,135c-0.5,1.6,0,2.2,1.6,1.6C464.1,135,463.5,134.5,461.9,135z"/>
	<path class="st0" d="M519.9,139.7c-0.5,1.6,0.1,2.1,1.7,1.6C522,139.6,521.5,139.1,519.9,139.7z"/>
	<path class="st0" d="M492.3,147.2c2.2,0,4.3,0,6.5,0c-1-1.9-2.2-3.7-3.4-5.4C494.4,143.6,493.3,145.4,492.3,147.2z"/>
	<path class="st0" d="M477.5,142.9c-0.5,1.6,0,2.1,1.7,1.6C479.6,142.9,479.1,142.4,477.5,142.9z"/>
	<path class="st0" d="M511.9,142.9c-0.5,1.6,0,2.2,1.6,1.7C514.1,143,513.5,142.4,511.9,142.9z"/>
	<path class="st0" d="M432.9,233.9c-3.4,0.3-6.8,0.5-10.2,0c-1.1-4.1-0.2-8.6-0.5-12.8c2.9,0.1,5.9-0.2,8.8,0.3
		c1.9,0.7,2,3.1,2.9,4.6c0.1-3.6,0.3-7.1,0-10.7c-0.7,1.3-1.4,2.9-2.5,3.8c-3,0.7-6.2,0.3-9.3,0.4c0-3.8,0-7.7,0-11.5
		c3.9,0.2,8.1-0.6,11.9,0.5c1,1.4,1.7,3,2.5,4.6c0.1-2.3,0-4.5-0.1-6.8c-7.6,0-15.2-0.1-22.7,0.1c1.5,0.9,4.4,0.9,4.1,3.4
		c0.2,5.6,0,11.2,0.1,16.8c-0.1,3.3,1,7.8-3.1,9.2c7.2,0,14.5,0.1,21.7,0c0.9-2.5,1.8-5.1,2.3-7.7
		C437,229.9,435.8,233.1,432.9,233.9z"/>
	<path class="st0" d="M465.3,226.7c-1.1-5.1-1-10.9,1.7-15.5c2.9-4.9,10.4-5.7,14.5-1.8c1.7,1.8,2.7,4.2,3.9,6.3
		c-0.1-3.5-0.4-7-0.6-10.6c-0.8,0.8-1.6,1.6-2.3,2.4c-4.3-2.1-9.5-3.1-14-0.8c-9.2,4-11.6,17.5-5.2,24.9c2,2.5,4.9,3.8,7.9,4.7h7.1
		c3.3-2,6.6-4.4,8.1-8.1c-2.8,2-4.8,5.3-8.4,6C472.6,235.6,466.5,232.2,465.3,226.7z"/>
	<path class="st0" d="M677.4,233.3c-2.5,0.8-5.2,0.6-7.7,0.6c-1.3-0.2-3.6,0.4-3.7-1.5c-0.5-4.9,0-9.9-0.2-14.8
		c0.1-3.1-0.3-6.3,0.4-9.4c1.4-1,3.3-1.1,5-1.7c-4.7-0.6-9.3-0.3-14-0.3c1.6,0.9,4.5,1.1,4.2,3.6c0.1,8.1,0.3,16.1-0.1,24.2
		c-0.6,0.1-1.7,0.4-2.3,0.5c-1.1,0.2-1.9,1.2-2.7,1.9h23.9l0.3-1c0.8-2.7,1.5-5.4,2.1-8.1C681,229.3,680,232.2,677.4,233.3z"/>
	<path class="st0" d="M726.3,206.2c1.3,0.6,2.6,1.2,3.9,1.9c0.7,6.6,0.2,13.4,0.3,20.1c-6.1-7.3-12-14.7-18-22
		c-2.9-0.1-5.8,0-8.6,0.3c1.7,0.6,3.7,0.9,5.2,2.1c2,1.4,1.1,4,1.3,6.1c-0.3,6.5,0.5,13.1-0.5,19.5l-1.8,0.3
		c-1.4-0.2-2.1,0.7-2.6,1.9h12c-0.8-0.8-1.6-1.8-2.8-1.9c-0.6-0.1-1.6-0.4-2.2-0.6c-0.5-7.1-0.2-14.2-0.2-21.3
		c6.7,7.8,13,15.9,19.6,23.8h0.6c0.2-8.9-0.2-17.8,0.2-26.7c-0.1-2.4,2.7-2.5,4.4-3.4C733.5,206.1,729.9,206.1,726.3,206.2z"/>
	<path class="st0" d="M15.7,217.9c-0.1,2-0.1,4.1-0.2,6.1c63.5,0,127,0,190.5,0c0-2,0-4,0-6C142.6,217.9,79.2,218,15.7,217.9z"/>
	<path class="st0" d="M698.9,234.7c-0.5-0.2-1.6-0.7-2.1-0.9c-0.4-8-0.3-15.9-0.1-23.9c-0.3-2.8,2.9-2.7,4.8-3.4
		c-4.5-0.5-9-0.5-13.5-0.1c1.3,0.5,2.6,1,3.9,1.6c0.9,3.1,0.5,6.4,0.6,9.6c-0.2,5.5,0.4,11-0.5,16.5c-0.5,0.2-1.6,0.5-2.1,0.7
		c-0.4-0.1-1.1-0.2-1.4-0.3c-0.2,0.5-0.5,1.5-0.7,2h13.8c-0.3-0.5-1-1.5-1.4-2C699.8,234.5,699.2,234.6,698.9,234.7z"/>
</g>
</svg>
