<?xml version="1.0" encoding="utf-8"?>
<!-- Generator: Adobe Illustrator 24.1.3, SVG Export Plug-In . SVG Version: 6.00 Build 0)  -->
<svg version="1.1" id="Layer_1" xmlns="http://www.w3.org/2000/svg" xmlns:xlink="http://www.w3.org/1999/xlink" x="0px" y="0px"
	 viewBox="0 0 512 512" style="enable-background:new 0 0 512 512;" xml:space="preserve">
<style type="text/css">
	.st0{fill:#172F38;}
</style>
<g>
	<path class="st0" d="M185.9,43.7c5.7-7.5,3.6-17.9,2.8-26.7H187c-12.7,7-21.5,24.1-14.5,37.5C178.7,55,182.1,47.3,185.9,43.7z"/>
	<path class="st0" d="M128,143.6c-23.8,29.5-37,67.6-36.5,105.6c0.3,41.4,16.8,82.3,45,112.3c23.8,25.4,55.4,43,89.6,49.2
		c43.5,8.5,90.6-1.3,126.8-26.9c31.3-21.7,54.6-54.6,64.7-91.1c10.9-38.6,7.2-81.3-10.4-117.5c-17.6-36.8-49.2-66.3-87-81.5
		c-26.9-11.1-56.4-14.5-85.2-10.9C193.2,88.4,154.4,110.7,128,143.6z M224.8,98.3c37-8.3,76.9-2.1,109.5,16.8
		c25.4,14.8,46.3,36.8,59.8,62.9c16.3,31.8,21,69.6,12.7,104.6c-9.3,41.4-37.3,77.9-74.3,98.6c-31.8,18.1-70.4,23.8-106.4,16
		c-37.5-7.8-71.7-30.5-93.4-62.1c-24.6-34.7-33.4-80-23.8-121.4C121,157,168.1,109.9,224.8,98.3z"/>
	<path class="st0" d="M344.1,133c3.1-2.1-0.3-7-3.4-4.7C337.6,130.4,341,135.8,344.1,133z"/>
	<path class="st0" d="M376.4,334.8c4.1-2.8-1.6-8.3-4.9-5.4C367.6,332,373.1,337.7,376.4,334.8z"/>
	<path class="st0" d="M158.5,354.2c1-3.4,1.8-6.7,2.8-10.1c-3.6,0.8-7,1.6-10.6,2.6C153.1,349.6,155.7,352.2,158.5,354.2z"/>
	<path class="st0" d="M356.8,354.2c3.1-2.1,5.4-4.7,7.8-7.8c-3.4-0.8-7-1.8-10.4-2.6C354.9,347.5,355.7,350.9,356.8,354.2z"/>
	<path class="st0" d="M343,54.5c6.5-13.7-2.1-31.1-15.3-37.5h-1.3c-1.6,9.8-2.8,21.7,5.2,29.5C335,49.1,337.6,55.8,343,54.5z"/>
	<path class="st0" d="M282.2,107.8c4.1-2.8-1.6-8.3-4.9-5.4C273.4,105,278.9,110.4,282.2,107.8z"/>
	<path class="st0" d="M215.2,112.8c1.3-4.1,0-5.4-4.4-4.1C209.5,112.5,211,113.8,215.2,112.8z"/>
	<path class="st0" d="M173,133.7c3.9,0.3,3.6-6,0-6C169.1,127.5,169.4,133.7,173,133.7z"/>
	<path class="st0" d="M158.8,141.2c-3.4,1.6-6,3.9-7.5,7.2c3.4,0.8,6.5,1.6,9.8,2.3C160.6,147.7,159.8,144.6,158.8,141.2z"/>
	<path class="st0" d="M356.5,141.2c-0.8,3.4-1.6,6.5-2.3,9.8c3.4-0.8,6.7-1.6,9.8-2.6C362.5,145.4,359.9,142.8,356.5,141.2z"/>
	<path class="st0" d="M360.4,485.2l0.5-1.3c-5.2-13.7-18.1-25.4-33.4-25.6c7-2.8,13.7-5.7,20.7-8.5c7.8,7.8,17.1,14.8,28.2,17.1
		c8,1.3,15.8-1.3,23.3-3.6c-7.2-12.9-21.5-22.3-36.8-20.7c6-4.4,12.2-8.3,18.4-11.9c8.5,5.7,17.9,10.9,28.5,11.6
		c8.8,0.5,16.6-3.6,24.1-7.5c-10.1-11.9-27.2-18.9-42.2-12.4c6.2-5.4,12.4-11.1,18.6-16.8c9.3,4.4,19.7,7.8,30.3,6.5
		c8.5-1,15.5-6.2,21.5-11.9c-12.7-8.3-29.2-13.2-42.7-3.9c5.2-6.7,10.6-13.2,15.5-19.9c17.1,5.7,39.3,3.4,48.7-14.2
		c-13.2-5.4-29.2-7-40.9,2.6c3.9-7.2,7.8-14.5,11.9-21.5c9.8,0.8,20.2,0.8,29-4.1c6.7-3.6,10.9-10.6,15-16.6
		c-13.5-5.7-30-2.6-39.6,8.8c2.8-7.8,5.2-15.8,8-23.6c17.6,0.3,36-10.1,38.8-28.7c-14-0.8-29,3.6-36.5,16c1.6-8,2.8-16.3,3.9-24.3
		c16.8-3.4,32.4-15.8,33.1-34.2c-13.5,1-27.7,7.2-32.4,21c-0.5-8.5-1-16.8-1.6-25.4c15.8-6,29.8-21,26.1-38.8
		c-12.7,4.1-26.9,12.7-26.9,28l-1-4.7c-3.4,3.4-4.9,7.5-3.6,12.4c-3.1-5.7-6-12.2-11.6-15.5c-7-4.7-15.8-5.4-23.8-6
		c2.3,7,4.7,14.5,10.4,19.7c7.2,6.5,16.8,8.8,26.1,10.6c0.8,8.5,1,17.3,0.3,25.9c-3.6-5.4-5.7-12.4-11.4-16.3
		c-6-4.7-13.7-6.7-21-8.8c-1,18.6,14.2,32.4,31.1,36.8c-0.8,8.5-2.1,17.1-4.7,25.4c-1-15.5-13.2-27.2-27.4-31.1
		c0,7.5-0.8,15.3,2.8,22.3c4.9,8.8,13.2,15,22,19.9c-2.6,8.5-5.4,16.8-8.8,25.1c1.6-15.5-7.5-31.8-22.8-36.5c-1,6.7-2.8,13.5-1,20.2
		c2.8,10.6,10.9,18.6,18.9,25.6c-3.9,7-7.8,14.2-12.7,20.7c3.9-14.8-3.6-30.8-16.6-38.6c-2.8,7.5-6,15.3-4.4,23.3
		c1.8,9.8,7.5,18.1,13.7,25.6c-4.9,6-9.6,11.9-14.8,17.9c1-6.5,2.8-13.2,1.6-19.7c-1.8-8-6.5-14.8-10.9-21.5
		c-14.5,13.7-10.9,36-1,51.2c-6,5.2-11.9,10.4-18.1,15.3c2.3-5.7,6-11.1,6-17.3c0.3-9.1-3.6-17.6-7.2-25.9
		c-6.5,4.1-10.9,11.1-13.5,18.4c-3.4,10.9-0.3,22.3,3.6,32.6c-7,4.7-14.2,8.8-21.5,12.7c3.9-5.4,9.1-10.6,10.1-17.3
		c1.8-9.1-0.5-18.4-2.8-27.4c-8,4.4-15,11.1-18.1,19.7c-3.4,9.8-2.1,20.4-0.8,30.5c-7.2,2.8-14.5,5.4-22,7.2
		c14.2-9.3,17.6-27.4,14.2-43.2c-7.5,3.6-15.3,7.8-20.2,15c-6,9.3-6.7,20.4-7.5,31.1c-14,2.8-27.7,6.7-40.6,12.4
		c-2.6,0.8-5.7,2.8-8.5,1.3c-14.2-6-29-10.9-44.3-13.7c-0.8-10.6-1.6-22-7.5-31.3c-4.7-7.2-12.4-11.4-19.9-15
		c-3.9,15.8,0,33.9,14.2,43.5c-7.5-1.8-15-4.7-22.3-7.5c1.3-10.1,2.3-20.4-0.8-30.3c-3.1-8.8-10.4-15-17.9-19.9
		c-2.6,8.8-4.7,18.1-2.8,27.4c1.3,7,6.5,12.4,10.4,17.9c-7.2-3.9-14.5-8.3-21.7-12.7c2.6-8.3,5.2-16.8,4.7-25.6
		c-0.5-10.4-6.5-19.4-14.5-25.9c-7.5,13.2-10.9,30.3-1.3,43.5c-6.2-4.9-12.4-9.8-18.1-15.3c3.4-6.5,6.7-12.9,8-20.2
		c2.8-11.1-1.3-23-9.1-31.1c-5.2,7.8-10.6,16-11.6,25.6c0,5.4,1.6,10.6,2.6,15.8c-5.4-5.7-10.4-11.9-15-17.9
		c6.2-7.5,11.9-16,13.7-25.6c1.3-8-1.8-15.8-4.1-23.3c-13.7,7.2-20.4,24.1-16.6,38.8c-4.9-6.7-8.8-14-12.7-21
		c7.5-6.5,15-13.7,18.4-23.6c2.1-7.8,0.8-16-1-23.8c-7.5,4.9-15,10.4-19.2,18.6c-3.1,6-2.3,12.7-2.8,19.2c-3.6-8-6.5-16.6-8.8-25.1
		c8.5-4.9,17.1-10.9,21.7-19.9c3.6-6.7,2.8-14.8,3.1-22.3c-14.2,4.1-26.7,15.5-27.4,31.1c-3.1-8-3.9-16.8-4.9-25.4
		c16.8-4.1,32.1-18.1,31.1-36.8c-7.5,1.8-15,4.1-21.2,8.8c-6.2,4.1-7.8,11.6-11.1,17.9c-0.8-9.1-0.3-17.9-0.3-26.9
		c9.3-2.3,19.4-4.4,26.9-11.1c5.7-4.9,7.8-12.2,10.1-19.2c-15.3-1.6-30.5,6.5-35.7,21.2c0.8-9.8,2.8-19.4,4.9-29
		c8.5-0.3,17.3-0.8,25.1-4.7c7.5-3.6,12.2-11.1,15-18.6c-13.7-2.3-28,1-37,12.2c2.6-8.5,6-16.8,9.3-25.1c16,5.2,34.7,0.3,43.2-14.8
		c-14-6.2-30.3-3.6-40.6,8c4.7-9.1,9.8-17.6,15.3-26.1c14,6,32.1,7.5,43-4.9c1.6-6-7.2-5.7-10.9-7.5c-10.6-3.9-20.7,2.1-29,8.3
		c6-9.1,13.5-16.8,20.7-25.1c13.2,8.5,32.9,13.5,45,0.3c-6.5-3.6-12.7-8.3-20.2-9.3c-6.2-0.8-12.2,2.6-18.1,3.6
		c3.9-4.7,10.6-7.5,12.7-13.7c-3.6,2.3-7,4.9-10.4,7.5c7.8-11.6,4.1-25.6-2.3-36.8C98.2,63.6,99.5,83,107.3,96.7
		c-6,6.2-11.9,12.2-17.9,18.4c3.6-12.7-2.3-24.8-10.6-34.2c-10.9,13.2-7,31.8,3.1,44c-4.9,7.8-9.6,15.5-14.8,23.3
		c2.8-14-5.4-26.4-16.6-33.9c-3.6,9.6-5.4,21,0.8,30.3c2.6,7,11.9,10.9,10.4,18.9l-1.6-0.3c-2.8,6.7-5.4,13.7-7.5,20.7
		c-0.8-14.2-10.4-26.1-23.3-31.6c-1,6.5-2.1,13.2,0,19.7c3.4,9.6,11.1,16.6,19.2,22.3c-1.8,9.1-3.9,18.1-5.7,27.2
		c-1.6-14.8-14.5-24.6-28.2-28c0.5,7.2,0.5,15.3,4.7,21.7c5.4,8.3,14.2,12.9,22.5,17.9c-1.3,8-1.6,16-1.6,24.1
		c-5.4-12.9-18.9-19.7-32.6-20.7c1.3,7.2,2.8,14.5,7.8,20.2c6.5,7.5,16.3,11.1,25.6,14c1,8,2.1,16.3,3.6,24.3
		c-7.8-12.7-22.8-16.8-36.8-16c2.3,7.2,5.4,15,11.6,19.7c8,6.2,18.4,8,28,9.3c1.8,7.8,4.4,15.3,7.2,22.5
		c-10.1-10.9-26.1-13.7-39.9-8.8c3.9,5.7,7.5,12.2,13.7,16c9.1,5.7,20.2,5.7,30.5,4.9c3.9,7,7.8,14.2,11.9,21.2
		c-11.9-9.3-27.7-8-41.2-2.3c3.1,4.4,6.5,8.8,11.4,11.6c10.9,7.5,25.4,5.7,37.5,2.6c4.9,6.7,10.6,13.2,15.5,19.9
		c-13.5-9.3-30-4.1-42.4,3.9c6.7,6.2,15,12.2,24.8,12.2c9.6,0.3,18.6-2.8,27.2-6.7c6,5.7,12.4,11.4,18.6,16.8
		c-6.7-1.3-13.7-3.9-20.4-1.6c-8.3,2.3-15.3,7.8-22,12.9c7,5.4,15.5,8.8,24.6,8.5c10.4-0.8,19.7-6,28.2-11.6
		c6.5,4.1,12.9,8.3,19.4,12.2c-15.5-2.3-30.8,7.2-37.8,20.7c7.5,2.1,15.5,4.9,23.3,3.4c10.9-2.3,19.9-9.3,28-17.1
		c6.2,2.8,12.9,4.9,18.6,8.5c-15,1.3-27.4,13.2-31.8,27.2c8.5,0.8,17.6,2.1,25.9-1.3c9.8-4.7,17.6-12.9,23.6-21.7
		c15,2.3,29.5,7,43.7,12.9c-9.6,7.8-21,13.5-29.8,22.3c2.3,2.3,4.7,4.9,7.2,7.2c9.8-9.3,21-17.3,32.6-24.3
		c12.4,6,23.6,14.2,33.4,24.1c2.6-2.1,5.2-4.1,8-6.2c-7.8-10.6-20.4-14.8-29.5-23.6c13.7-5.7,28-9.6,42.4-12.9
		c6.2,7.5,12.4,15.5,21,20.4C340.5,487.3,351.1,486.5,360.4,485.2z"/>
	<path class="st0" d="M388.3,184.2c1.3-4.1-0.3-5.7-4.4-4.4C382.6,184.2,384.2,185.5,388.3,184.2z"/>
	<path class="st0" d="M117.1,227.4c3.1-1.8-0.3-7.2-3.4-4.9C110.6,224.6,114,229.8,117.1,227.4z"/>
	<path class="st0" d="M400,227.9c3.6,0.3,3.6-6.2,0-6C396.4,222,396.4,227.9,400,227.9z"/>
	<path class="st0" d="M113.5,267.8c-1.3,4.1,0,5.7,4.1,4.4C118.9,268.1,117.6,266.5,113.5,267.8z"/>
	<path class="st0" d="M143.5,335.1c4.4-2.3-0.5-8.3-4.1-5.7C134.7,331.5,139.9,337.9,143.5,335.1z"/>
	<path class="st0" d="M340.5,362c-1.3,4.1,0.3,5.7,4.1,4.1C345.9,362,344.3,360.7,340.5,362z"/>
	<path class="st0" d="M190.3,373.9c-1.6,4.1,0,5.4,4.1,4.4C195.8,374.2,194.5,372.6,190.3,373.9z"/>
	<path class="st0" d="M233.8,386.9c-4.1,1.3-1.8,7.8,2.3,6.2C240.3,391.8,237.7,385,233.8,386.9z"/>
	<path class="st0" d="M277.8,387.9c-3.1,3.4,3.1,7.5,5.4,3.9C285.8,388.7,280.1,384.5,277.8,387.9z"/>
	<path class="st0" d="M222.2,41.8c-11.4-7.2-26.4-3.4-33.4,8C200.7,55.3,213.6,51.2,222.2,41.8z"/>
	<path class="st0" d="M302.9,49.4c7.2,4.7,16,3.1,23.6,0.5c-7-10.4-19.9-14.8-31.6-9.6C293.9,45.2,300.1,47.3,302.9,49.4z"/>
	<path class="st0" d="M363.7,103.2c5.7,2.8,11.4,6.7,17.9,7c9.3,0.5,18.4-3.6,26.1-8.8c8.3,7.2,15.3,16,21.7,25.1
		c-5.2-3.1-9.8-7.2-15.8-8.8c-9.3-2.1-18.4,1.8-26.7,6c5.2,4.4,10.6,9.6,17.6,11.1c9.6,2.1,18.9-1,28-4.1c4.9,8,10.1,16,13.5,24.8
		c-10.1-10.9-25.9-12.2-39.1-6.5c4.9,6,10.1,12.7,18.1,15c8.3,2.6,17.1,1.6,25.6,0.3c3.4,8.8,7,17.6,9.8,26.7
		c-4.7-4.4-8.5-10.4-15-12.4c-7.2-2.8-15.3-1.8-22.8-1.6c4.7,17.6,23.8,24.6,40.4,23.3c1.3,6,2.3,11.9,2.8,18.1
		c1.3-1.8,2.6-3.6,4.1-5.4c-1.6-6.2-2.8-12.2-4.1-18.4c7.8-5.4,15-11.9,18.6-20.7c2.6-6.7,1.3-14,0.8-21
		c-12.9,4.9-23.3,16.8-23,31.1c-3.1-8.5-6.7-17.1-10.4-25.6c12.7-10.6,19.7-28.5,11.6-44c-10.9,7.5-19.4,19.9-16.6,33.6
		c-5.2-7.5-9.8-15.5-14.8-23.3c10.1-12.4,13.7-30.8,3.1-44.3c-8.8,9.1-14.5,21.7-10.9,34.4c-6-6.2-11.6-12.4-17.9-18.4
		c3.4-7.2,6-15,6-23c-0.3-8-5.2-14.8-10.4-20.2c-7,10.9-10.6,25.4-2.6,37c-3.1-3.4-7-5.2-11.1-5.7c4.7,4.1,9.1,8,13.7,12.4
		C389.4,89.5,373.3,92.3,363.7,103.2z"/>
	<path class="st0" d="M304.5,112.5c1-4.1-0.5-5.4-4.4-3.9C298.8,112.8,300.3,114.1,304.5,112.5z"/>
	<path class="st0" d="M327.8,57.1c-9.1,1.8-14.8,10.1-20.2,16.8c14.2,7.2,33.6-1.3,38.6-16c9.1,4.4,17.6,9.6,26.9,13.7
		c-5.7,1.6-11.6,0.3-17.3,1c-7.8,2.1-14,7.8-19.4,13.5c5.4,2.3,11.1,4.7,17.1,4.4c10.1-0.3,18.4-6.7,25.9-12.9
		c3.1,2.1,6,4.4,9.3,6.2c-0.8-5.4-7.5-7.2-11.4-10.6c3.4-11.4,4.9-25.6-3.9-35.2c-2.3-2.1-4.4-6.5-8-5.2
		c-5.2,11.6-4.1,25.4,3.9,35.5c-7.5-3.4-14.5-9.3-22.8-10.6C340.2,56.3,334,56.3,327.8,57.1z"/>
	<path class="st0" d="M135.5,77.8c9.3,7,19.9,15.3,32.1,12.2c3.4-1.3,10.1-0.8,9.6-5.7c-8.5-9.6-22-15.8-34.4-9.8l0.5-3.9
		c8.5-2.6,16-8,23.8-12.2c8.8,12.9,25.1,23.3,40.6,15.8c-5.4-6.7-11.1-15-19.9-16.8c-7-1-14-0.5-20.7,0.3c-7.2,2.8-14,7.2-21,10.6
		c5.2-7.5,9.6-16.3,7-25.6c-1.6-3.1-0.3-10.1-5.2-10.1c-12.7,8.8-15.3,26.1-9.3,39.9c-3.9,3.4-8,7-12.2,10.1
		C130,83.3,132.4,79.4,135.5,77.8z"/>
	<path class="st0" d="M265.9,101.6c-5.7,0-11.1,0-16.6,0c2.8,4.7,5.4,9.6,8.5,14.2C260.5,111,263.3,106.3,265.9,101.6z"/>
	<path class="st0" d="M237.2,106c6.5-1-3.1-9.8-2.8-2.8C227.6,103.4,236.4,112.8,237.2,106z"/>
	<path class="st0" d="M194.5,121c1.3-4.1,0-5.4-4.4-4.1C189,121,190.3,122.3,194.5,121z"/>
	<path class="st0" d="M325.2,121.3c1.3-4.1,0-5.4-4.1-4.4C319.5,121,320.8,122.3,325.2,121.3z"/>
	<path class="st0" d="M143.5,164.8c1.3-4.1-0.3-5.4-4.4-4.1C137.8,164.8,139.4,166.1,143.5,164.8z"/>
	<path class="st0" d="M376.2,164.8c1.6-4.1,0-5.4-4.1-4.1C370.5,164.8,372,166.1,376.2,164.8z"/>
	<path class="st0" d="M131.3,184.5c1.3-4.1,0-5.7-4.1-4.1C125.6,184.2,127.2,185.8,131.3,184.5z"/>
	<path class="st0" d="M123,205.2c1.3-4.1-0.3-5.7-4.1-4.1C117.4,205.2,118.9,206.7,123,205.2z"/>
	<path class="st0" d="M396.9,205.2c1.3-4.1,0-5.7-4.1-4.4C391.2,205.2,392.7,206.5,396.9,205.2z"/>
	<path class="st0" d="M239.3,247.9l-0.3,3.6c-2.6,2.3-4.1,5.4-6,8.3c-19.9,1.6-38.6-7.2-58.2-7c19.2,1,37.5,7.5,56.4,8.8
		c-9.1,14-20.4,26.9-28.7,41.4c17.9-17.3,35.5-35.2,52.8-53.3c2.3,4.7,1.8,10.1,0,15v0.5c-3.9,2.6-7.8,4.9-11.6,7.5
		c2.3,23.3,7.5,46.3,10.6,69.6c-0.8,5.2,1.6,10.1,3.6,14.8c2.3-14.8-0.8-29.5,0.3-44.3c0.8-15.8-1.6-31.8,1.6-47.6
		c3.1,2.6,6.5,4.9,9.8,7c0.8,15.5-4.9,30.3-4.9,45.8c1-11.1,2.8-22.3,4.9-33.4c-0.3-3.9,2.6-6.5,4.7-9.1
		c12.4,9.6,25.1,18.9,38.3,27.7c-1.8-2.6-3.6-5.2-6-7.2c-16-15-31.1-30.8-46.6-46.1l0.5-1.8c4.4,0,9.1,0,13.5,0
		c3.1,4.7,6.2,9.1,9.1,13.5c28-4.1,55.9-8.8,83.9-13.5c-30.8-1.8-61.6-0.3-92.4-0.8c2.6-4.1,5.2-8.3,8-12.4
		c15.3,1.8,30.3,3.6,45.3,6.5c5.7,1.3,11.4,3.9,17.1,1.6c-16-1.3-31.8-4.7-47.9-7c-4.7,0.3-7.8-3.4-11.4-6
		c9.1-12.2,19.2-23.8,26.1-37.5c-17.6,17.3-34.7,35.2-52.3,52.5c-1.6-4.9-1.8-10.1,0-15c4.1-2.8,8-5.7,12.2-8.8
		c-3.9-22.8-7.8-45.6-11.1-68.3c0.5-5.7-1.8-11.1-3.1-16.6c-3.9,30.8,2.1,62.4-2.1,93.4c-3.1-2.6-6.5-4.7-9.8-6.7
		c-0.8-21.5,7.2-41.7,7.2-62.9c-0.8,18.6-6.7,36.5-7.8,54.9c-1.3,1.8-2.8,3.4-4.4,4.9c-12.2-9.8-24.6-19.4-38.3-27.2
		c17.3,17.6,35.2,35.2,52.8,52.5c-5.2,2.6-11.4,1.8-16.3-0.8c-2.1-4.4-5.2-8-7.8-11.6c-27.4,6-55.4,8.5-82.6,14.5
		C178.7,248.6,209,247.4,239.3,247.9z"/>
	<path class="st0" d="M111.9,239.1c0,5.4,0,10.9-0.3,16.6c4.9-2.6,9.6-5.2,14.2-8C121.2,244.8,116.6,241.9,111.9,239.1z"/>
	<path class="st0" d="M403.6,239.1c-4.7,2.6-9.6,5.4-14.2,8c4.7,3.1,9.1,6,14,8.5C403.6,250.5,403.6,244.8,403.6,239.1z"/>
	<path class="st0" d="M397.7,267.8c-1.3,4.1,0,5.7,4.1,4.1C403.3,267.8,401.8,266.2,397.7,267.8z"/>
	<path class="st0" d="M118.6,290.1c-1.6,4.1,0,5.4,4.1,4.1C124.3,290.1,123,288.8,118.6,290.1z"/>
	<path class="st0" d="M392.5,290.1c-1.3,4.1,0.3,5.4,4.4,4.4C397.9,290.3,396.6,288.8,392.5,290.1z"/>
	<path class="st0" d="M127.2,310.8c-1.3,4.1,0.3,5.4,4.4,4.1C132.6,311,131.3,309.5,127.2,310.8z"/>
	<path class="st0" d="M384.2,310.8c-1.6,4.1,0,5.4,4.1,4.1C389.6,310.8,388.3,309.5,384.2,310.8z"/>
	<path class="st0" d="M170.7,362c-1.3,4.1,0,5.7,4.1,4.1C176.4,362,174.8,360.7,170.7,362z"/>
	<path class="st0" d="M320.8,374.2c-1.3,4.1,0.3,5.4,4.4,4.1C326.2,373.9,324.9,372.6,320.8,374.2z"/>
	<path class="st0" d="M249.3,393.6c5.7,0,11.1,0,16.8,0c-2.6-4.9-5.7-9.6-8.8-14C254.8,384.3,251.9,388.9,249.3,393.6z"/>
	<path class="st0" d="M211,382.5c-1.3,4.1,0,5.4,4.4,4.1C216.5,382.5,215.2,381.2,211,382.5z"/>
	<path class="st0" d="M300.1,382.5c-1.3,4.1,0,5.7,4.1,4.4C305.8,382.7,304.2,381.2,300.1,382.5z"/>
</g>
</svg>
