<?xml version="1.0" encoding="utf-8"?>
<!-- Generator: Adobe Illustrator 24.1.3, SVG Export Plug-In . SVG Version: 6.00 Build 0)  -->
<svg version="1.1" id="Layer_1" xmlns="http://www.w3.org/2000/svg" xmlns:xlink="http://www.w3.org/1999/xlink" x="0px" y="0px"
	 viewBox="0 0 423 76" style="enable-background:new 0 0 423 76;" xml:space="preserve">
<style type="text/css">
	.st0{fill:#184274;}
	.st1{fill:#184374;}
	.st2{fill:#0397A9;}
	.st3{fill:#7ABD70;}
	.st4{fill:#1D4777;}
	.st5{fill:#219753;}
	.st6{fill:#FFFFFF;}
	.st7{fill:#191919;}
	.st8{fill:#EA4335;}
	.st9{fill:#FBBC05;}
	.st10{fill:#4285F4;}
	.st11{fill:#34A853;}
	.st12{fill:#FFCA40;}
</style>
<path class="st0" d="M379.6,36.9c2.7-0.8,5.3-1.6,8-2.3c6.6-2,13.3-3.9,19.9-5.9c0.4-0.1,0.7-0.1,1,0.1c4.1,2.4,8.1,4.7,12.2,7
	c0.3,0.2,0.6,0.4,0.7,0.8c0.1,0.5-0.1,0.9-0.7,1.2c-2.1,1.2-4.2,2.4-6.3,3.7c-2,1.2-4,2.3-6,3.5c-0.3,0.2-0.5,0.2-0.8,0.1
	c-9.2-2.7-18.4-5.4-27.6-8.1C379.9,37,379.7,37,379.6,36.9z"/>
<path class="st0" d="M276.1,23.9c0.2,4.6,0.1,9.2,0.1,13.9c0,1.1,0,1.1-1.1,1.2c-0.9,0-1.7,0.1-2.6-0.1c-0.4,0-0.5-0.2-0.5-0.6
	c0-7.1,0-14.1,0-21.2c0-0.4,0.1-0.6,0.5-0.6c1,0,2-0.1,2.9,0c0.3,0,0.6,0.2,0.7,0.5c2.6,4.1,5.4,8.1,7.9,12.2
	c0.5,0.8,0.9,1.6,1.3,2.5c-0.3-4.9-0.1-9.6-0.2-14.4c0-0.6,0-0.7,0.7-0.8c1-0.1,2.1-0.1,3.1,0c0.3,0.1,0.5,0.2,0.5,0.6
	c0,7,0,14.1,0,21.1c0,0.4-0.1,0.5-0.5,0.6c-1,0.1-2,0.1-3,0c-0.3,0-0.5-0.2-0.7-0.4c-2.8-4.4-5.8-8.7-8.5-13.2
	C276.6,24.8,276.4,24.3,276.1,23.9z"/>
<path class="st1" d="M340.5,16.5c0.5,0,0.9,0,1.4,0c0.5,0,0.8,0.3,0.9,0.7c1.6,4.4,3.2,8.8,4.8,13.2c0.9,2.5,1.8,5.1,2.7,7.6
	c0.2,0.5,0.1,0.6-0.4,0.7c-1.1,0.1-2.3,0.1-3.4,0c-0.4-0.1-0.7-0.3-0.8-0.7c-0.5-1.5-1-3-1.5-4.5c-0.1-0.3-0.2-0.4-0.6-0.4
	c-2.1,0-4.2,0-6.3,0c-0.3,0-0.5,0.1-0.6,0.4c-0.5,1.5-1,3-1.5,4.5c-0.2,0.5-0.4,0.7-0.9,0.7c-1,0.1-2.1,0.1-3.1,0
	c-0.6-0.1-0.6-0.1-0.4-0.7c2.3-6.4,4.6-12.8,6.8-19.2c0.2-0.6,0.4-1.2,0.6-1.8c0.1-0.3,0.3-0.5,0.6-0.6
	C339.4,16.4,339.9,16.5,340.5,16.5z M337.9,29.7c1.6,0,3.2,0,4.8,0c-0.8-2.6-1.6-5.1-2.4-7.8C339.6,24.6,338.8,27.1,337.9,29.7z"/>
<path class="st1" d="M302,16.5c0.4,0,0.9,0,1.3,0c0.5,0,0.8,0.3,0.9,0.7c1.4,4,2.9,8,4.3,11.9c1.1,3,2.1,5.9,3.2,8.9
	c0.2,0.6,0.2,0.7-0.5,0.8c-1.1,0.1-2.2,0.1-3.3,0c-0.4,0-0.7-0.2-0.8-0.7c-0.5-1.5-1-3-1.6-4.5c-0.1-0.3-0.2-0.4-0.5-0.4
	c-2.1,0-4.2,0-6.4,0c-0.3,0-0.5,0.1-0.6,0.4c-0.5,1.5-1,2.9-1.4,4.4c-0.2,0.5-0.5,0.7-1,0.8c-1.1,0.1-2.1,0.1-3.2,0
	c-0.4,0-0.5-0.2-0.4-0.6c2.5-7,5-14.1,7.5-21.1c0.1-0.4,0.3-0.5,0.7-0.6C300.9,16.4,301.5,16.5,302,16.5z M301.9,22.1
	c-0.3,0.8-0.5,1.7-0.8,2.5c-0.5,1.6-1,3.2-1.5,4.8c-0.1,0.2-0.2,0.3,0.2,0.3c1.5,0,3,0,4.6,0C303.5,27.2,302.7,24.6,301.9,22.1z"/>
<path class="st1" d="M351.5,27.6c0.1-2,0.3-3.9,1.1-5.6c1.6-3.8,4.8-5.9,8.9-5.9c2.1,0,4,0.5,5.7,1.7c0.6,0.4,0.7,0.6,0.3,1.3
	c-0.3,0.6-0.7,1.3-1.1,1.9c-0.2,0.4-0.5,0.4-0.9,0.2c-1.1-0.8-2.3-1.3-3.7-1.3c-2.2,0-3.8,0.9-4.8,2.9c-0.9,1.8-1,3.8-0.9,5.8
	c0.1,1.3,0.3,2.5,0.8,3.7c0.9,1.9,2.3,2.9,4.4,3c1.6,0.1,3-0.3,4.4-1c0.5-0.3,0.7-0.2,0.9,0.3c0.3,0.7,0.6,1.3,0.9,2
	c0.1,0.3,0.1,0.6-0.2,0.8c-3,1.8-7.9,2.7-11.4,0.5c-2.2-1.4-3.4-3.4-4-5.9C351.6,30.5,351.5,29,351.5,27.6z"/>
<path class="st1" d="M313.1,27.9c0-2.4,0.3-4.6,1.4-6.7c1.8-3.4,4.7-5,8.5-5c2.1,0,4,0.5,5.7,1.7c0.6,0.5,0.7,0.6,0.3,1.3
	c-0.3,0.6-0.6,1.2-1,1.8c-0.3,0.6-0.4,0.6-1,0.2c-1-0.7-2.2-1.2-3.4-1.2c-2.4-0.1-4.2,1-5.1,3.3c-0.7,1.8-0.8,3.7-0.7,5.6
	c0,0.9,0.2,1.8,0.4,2.6c0.9,3.1,3.1,4.3,6.2,3.9c1.1-0.1,2.1-0.5,3.1-1c0.4-0.2,0.7-0.1,0.9,0.3c0.3,0.7,0.7,1.4,1,2.1
	c0.1,0.3,0.1,0.6-0.2,0.8c-3,1.8-8,2.6-11.5,0.4c-2.1-1.3-3.3-3.4-3.9-5.7C313.2,30.7,313.1,29.3,313.1,27.9z"/>
<path class="st2" d="M404.8,26.7c-8.7,2.6-17.4,5.1-26.1,7.7c0.7-0.9,1.4-1.7,2-2.5c3.4-4.2,6.8-8.4,10.1-12.6
	c0.3-0.3,0.5-0.4,0.8-0.2c4.2,2.4,8.4,4.9,12.6,7.3C404.5,26.5,404.6,26.6,404.8,26.7z"/>
<path class="st2" d="M404.8,47.1c-1.7,1-3.4,2-5,2.9c-2.7,1.6-5.5,3.2-8.2,4.7c-0.3,0.1-0.4,0.2-0.6-0.1c-4-5-8-9.9-12-14.9
	c-0.1-0.1-0.1-0.1-0.2-0.3C387.4,42,396.1,44.5,404.8,47.1z"/>
<path class="st3" d="M376.4,33c0-0.3,0-0.4,0-0.5c0-6.7,0-13.4,0-20.2c0-0.4,0.1-0.8,0.4-1c0.4-0.3,0.8-0.2,1.3,0
	c2.5,1.4,5,2.9,7.5,4.3c1,0.6,2,1.2,3,1.7c0.3,0.2,0.3,0.3,0.1,0.5c-4,4.9-7.9,9.8-11.9,14.7C376.7,32.7,376.6,32.8,376.4,33z"/>
<path class="st3" d="M376.5,40.9c0.9,1.1,1.8,2.2,2.7,3.3c3.1,3.9,6.3,7.8,9.4,11.6c0.3,0.3,0.3,0.4-0.1,0.7c-3.4,2-6.9,4-10.3,5.9
	c-1,0.6-1.7,0.2-1.7-1c0-6.7,0-13.4,0-20.1c0-0.1,0-0.3,0-0.4C376.4,41,376.5,41,376.5,40.9z"/>
<path class="st4" d="M309.4,53.6c0.2-0.3,0.5-0.4,0.8-0.5c0.7-0.1,1.3,0.2,1.4,0.9c0.2,1,0.1,2,0.1,3c0,0.4-0.4,0.2-0.6,0.2
	c-0.2,0-0.4,0-0.4-0.4c0-0.8,0-1.5,0-2.3c0-0.5-0.2-0.6-0.6-0.6c-0.3,0.1-0.4,0.3-0.4,0.6c0,0.8,0,1.5,0,2.3c0,0.4-0.3,0.4-0.5,0.4
	c-0.3,0-0.5,0-0.5-0.4c0-0.7,0-1.5,0-2.2c0-0.4-0.1-0.6-0.5-0.6c-0.4,0-0.5,0.3-0.5,0.6c0,0.7,0,1.5,0,2.2c0,0.4-0.2,0.4-0.5,0.4
	c-0.3,0-0.5,0-0.5-0.4c0-1.1,0-2.1,0-3.2c0-0.2-0.1-0.4,0.1-0.5c0.3-0.1,0.6-0.1,0.8,0.1c0.1,0.1,0.1,0.2,0.3,0.1
	C308.4,52.9,308.7,53,309.4,53.6z"/>
<path class="st4" d="M366.5,57.1c-1.3,0.5-2.1-0.1-2.2-1.5c0-0.5,0-1,0.2-1.5c0.4-0.9,1.2-1.2,2-0.7c0.1,0.1,0.2,0.1,0.2,0
	c0.1-0.3,0.4-0.1,0.6-0.1c0.2,0,0.2,0.3,0.2,0.4c0,1.3,0,2.5,0,3.8c-0.1,1.5-1.2,2.2-2.6,1.6c-0.3-0.1-0.3-0.3-0.2-0.6
	c0.1-0.3,0.2-0.3,0.5-0.2C366.2,58.5,366.5,58.2,366.5,57.1z M366.5,55.2c0-0.3,0-0.5,0-0.8c0-0.3-0.2-0.4-0.4-0.5
	c-0.2-0.1-0.4,0-0.5,0.2c-0.3,0.4-0.3,1.6,0,1.9c0.2,0.2,0.4,0.3,0.6,0.3c0.3-0.1,0.4-0.2,0.4-0.5C366.5,55.7,366.5,55.4,366.5,55.2
	z"/>
<path class="st4" d="M290.2,57.1c-0.1-0.1-0.2,0.1-0.4,0.1c-0.7,0.2-1.3,0-1.6-0.7c-0.4-0.9-0.4-1.9,0.1-2.8
	c0.4-0.7,1.1-0.9,1.8-0.5c0.2,0.1,0.2,0.1,0.3,0c0.1-0.2,0.4-0.1,0.6-0.1c0.2,0,0.2,0.2,0.2,0.4c0,1.3,0,2.6,0,3.9
	c-0.1,1.5-1.4,2.1-2.7,1.4c-0.3-0.2-0.2-0.4-0.1-0.6c0.1-0.2,0.2-0.4,0.4-0.2c0,0,0,0,0,0C289.9,58.5,290.3,58.1,290.2,57.1z
	 M290.2,55.2C290.2,55.2,290.2,55.2,290.2,55.2c0-0.2,0-0.5,0-0.7c0-0.3-0.2-0.4-0.5-0.5c-0.2-0.1-0.4,0.1-0.5,0.2
	c-0.3,0.4-0.3,1.6,0,1.9c0.2,0.2,0.4,0.3,0.6,0.2c0.3-0.1,0.4-0.2,0.4-0.5C290.2,55.7,290.2,55.4,290.2,55.2z"/>
<path class="st4" d="M304.4,53.3c0-0.6,0-1.1,0-1.6c0-0.4,0.2-0.4,0.5-0.4c0.3,0,0.6-0.1,0.5,0.4c0,1.4,0,2.7,0,4.1
	c0,0.2-0.1,0.5,0.3,0.7c0.2,0.1,0.1,0.4,0,0.6c-0.1,0.2-0.4,0.3-0.5,0.2c-0.5-0.3-1,0-1.6,0c-0.6,0.1-1-0.2-1.3-0.8
	c-0.4-0.9-0.4-1.8,0-2.7C302.8,53.1,303.5,52.9,304.4,53.3z M304.4,55.2C304.4,55.2,304.4,55.2,304.4,55.2c0-0.2,0-0.4,0-0.7
	c0-0.3-0.2-0.5-0.4-0.5c-0.3-0.1-0.5,0-0.6,0.3c-0.3,0.6-0.3,1.3,0,1.9c0.1,0.3,0.4,0.3,0.6,0.3c0.3-0.1,0.4-0.2,0.4-0.5
	C304.4,55.7,304.4,55.4,304.4,55.2z"/>
<path class="st4" d="M272.9,44.9c0,1.3,0,2.5,0,3.8c0,0.2,0,0.4-0.3,0.4c-0.3,0-0.3-0.2-0.3-0.4c0-1.6,0-3.1,0-4.7
	c0-0.2-0.1-0.4,0.2-0.5c0.3,0,0.6-0.1,0.8,0.2c0.4,0.7,0.8,1.3,1.2,1.9c0.4,0.7,0.8,1.3,1.2,2c0.2-0.2,0.1-0.3,0.1-0.5
	c0-1.1,0-2.2,0-3.4c0-0.3,0-0.4,0.3-0.4c0.3,0,0.3,0.1,0.3,0.4c0,1.6,0,3.1,0,4.7c0,0.2,0.1,0.5-0.2,0.5c-0.3,0-0.5,0.1-0.7-0.3
	c-0.7-1.2-1.4-2.4-2.1-3.5C273.2,45.1,273.1,45,272.9,44.9C273,44.8,272.9,44.8,272.9,44.9z"/>
<path class="st4" d="M301.4,57.2c-0.7,0.2-0.8-0.3-0.9-0.7c-0.1-0.5-0.3-0.8-0.9-0.7c-0.9,0.1-0.9,0-1.1,0.9
	c-0.2,0.6-0.4,0.7-0.9,0.6c-0.2,0-0.2-0.1-0.2-0.3c0.5-1.7,1.1-3.4,1.6-5c0.1-0.3,0.4-0.3,0.6-0.3c0.2,0,0.4,0,0.5,0.3
	c0.5,1.6,1,3.3,1.6,4.9C301.9,57.4,301.5,57.2,301.4,57.2z M299.6,53.1c-0.1,0.4-0.2,0.8-0.3,1.1c-0.2,0.9-0.2,0.9,0.7,0.8
	c0,0,0.1,0,0.1,0C299.9,54.3,299.7,53.8,299.6,53.1z"/>
<path class="st4" d="M360.3,55.2c0-0.5,0-1,0-1.4c0-0.2-0.2-0.5,0.1-0.5c0.3-0.1,0.6-0.2,0.8,0.1c0.1,0.2,0.2,0.1,0.3,0
	c1-0.5,1.8-0.1,1.9,1c0.1,0.9,0,1.8,0,2.6c0,0.4-0.3,0.3-0.6,0.3c-0.2,0-0.5,0.1-0.5-0.3c0-0.7,0-1.5,0-2.2c0-0.4-0.1-0.7-0.5-0.7
	c-0.5,0-0.6,0.3-0.6,0.7c0,0.7,0,1.5,0,2.2c0,0.4-0.2,0.4-0.5,0.4c-0.3,0-0.6,0.1-0.5-0.4C360.4,56.3,360.4,55.7,360.3,55.2
	C360.4,55.2,360.3,55.2,360.3,55.2z"/>
<path class="st4" d="M333.9,54.4c0,0.3,0,0.6,0.1,0.9c0.2,1,0.8,1.3,1.7,1c0.4-0.2,0.5-0.1,0.7,0.3c0.2,0.4-0.1,0.5-0.4,0.6
	c-1.5,0.6-2.8-0.1-3.1-1.7c-0.1-0.8-0.1-1.7,0.2-2.5c0.5-1.3,2-1.8,3.1-1c0.2,0.1,0.3,0.3,0.2,0.5c-0.1,0.2-0.2,0.4-0.6,0.3
	c-0.9-0.4-1.5-0.1-1.8,0.9C334,53.9,334,54.2,333.9,54.4z"/>
<path class="st4" d="M312.7,49.1c-0.3,0-0.4-0.1-0.5-0.4c-0.4-1.1-0.4-1.1-1.5-1.1c-1,0-1,0-1.4,1c0,0.1,0,0.2-0.1,0.3
	c-0.2,0.3-0.4,0.2-0.6,0.1c-0.2-0.1-0.1-0.3,0-0.4c0.6-1.6,1.1-3.2,1.7-4.8c0.1-0.3,0.2-0.4,0.5-0.4c0.3,0,0.4,0,0.5,0.3
	c0.6,1.6,1.1,3.3,1.7,4.9C313.1,49,313,49.1,312.7,49.1z M310.7,44.3c-0.3,0.8-0.5,1.6-0.8,2.3c0,0.1-0.1,0.3-0.1,0.4
	c0.5,0,0.9,0,1.4,0c0.3,0,0.4-0.1,0.3-0.4C311.2,45.9,311,45.1,310.7,44.3z"/>
<path class="st4" d="M336.8,55.2c0-0.4,0.1-0.7,0.2-1.1c0.3-0.7,0.9-1.1,1.6-1.1c0.7,0,1.2,0.4,1.5,1.2c0.2,0.6,0.2,1.1,0,1.7
	c-0.2,0.9-0.8,1.4-1.8,1.4c-0.9,0-1.4-0.5-1.6-1.5C336.8,55.6,336.8,55.4,336.8,55.2z M339.2,55.1c0-0.2,0-0.4-0.1-0.7
	c-0.1-0.3-0.2-0.5-0.5-0.5c-0.3,0-0.5,0.2-0.6,0.4c-0.2,0.5-0.2,1.1,0,1.6c0.1,0.3,0.2,0.4,0.5,0.4c0.3,0,0.4-0.1,0.6-0.4
	C339.1,55.8,339.1,55.5,339.2,55.1z"/>
<path class="st4" d="M345,55.2c0-0.5,0-1,0-1.5c0-0.2-0.1-0.4,0.1-0.5c0.3,0,0.6-0.2,0.8,0.1c0.1,0.2,0.2,0.1,0.3,0
	c0.9-0.5,1.8-0.1,1.9,0.9c0.1,0.9,0.1,1.9,0,2.8c0,0.4-0.4,0.2-0.6,0.2c-0.2,0-0.4,0-0.4-0.4c0-0.8,0-1.6,0-2.4
	c0-0.3-0.1-0.5-0.5-0.5c-0.4,0-0.6,0.2-0.6,0.6c0,0.7,0,1.4,0,2.2c0,0.4-0.1,0.5-0.5,0.5c-0.4,0-0.5-0.1-0.5-0.5
	C345,56.2,345,55.7,345,55.2C345,55.2,345,55.2,345,55.2z"/>
<path class="st4" d="M327.1,55.2c0-0.5,0-1,0-1.5c0-0.2-0.1-0.4,0.1-0.5c0.3-0.1,0.6-0.2,0.8,0.1c0.1,0.2,0.2,0.1,0.3,0
	c1-0.6,1.9-0.1,2,1c0.1,0.9,0,1.7,0,2.6c0,0.4-0.3,0.3-0.5,0.3c-0.2,0-0.5,0.1-0.5-0.3c0-0.8,0-1.6,0-2.4c0-0.3-0.1-0.6-0.5-0.6
	c-0.4,0-0.6,0.2-0.6,0.6c0,0.8,0,1.5,0,2.3c0,0.4-0.2,0.4-0.5,0.4c-0.3,0-0.6,0-0.5-0.4C327.2,56.3,327.2,55.7,327.1,55.2
	C327.2,55.2,327.2,55.2,327.1,55.2z"/>
<path class="st4" d="M354.4,55.5c-0.3,0-0.6,0-0.8,0c-0.4,0-0.4,0.2-0.3,0.5c0.2,0.5,0.7,0.6,1.4,0.3c0.3-0.1,0.4,0,0.5,0.2
	c0.1,0.3,0,0.4-0.2,0.5c-0.7,0.3-1.4,0.4-2.1,0c-0.7-0.4-0.8-1.1-0.8-1.9c0-0.5,0.1-0.9,0.3-1.3c0.3-0.6,0.8-0.8,1.5-0.8
	c0.6,0,1.1,0.4,1.3,1c0.2,0.4,0.4,1,0.1,1.3C355.2,55.8,354.7,55.5,354.4,55.5z M353.8,54.8c0.2-0.2,0.6,0.2,0.6-0.2
	c0-0.3-0.1-0.7-0.5-0.7c-0.3,0-0.6,0.4-0.6,0.7C353.3,55,353.7,54.7,353.8,54.8z"/>
<path class="st4" d="M344.1,55.2c0,0.5,0,1,0,1.5c0,0.2,0.1,0.4-0.1,0.5c-0.3,0.1-0.6,0.1-0.8-0.1c-0.1-0.1-0.2-0.1-0.3-0.1
	c-1,0.6-1.9,0.1-2-1c0-0.9,0-1.7,0-2.6c0-0.4,0.3-0.3,0.5-0.3c0.2,0,0.5-0.1,0.5,0.3c0,0.6,0,1.2,0,1.7c0,0.2,0,0.4,0,0.7
	c0,0.3,0.2,0.5,0.5,0.5c0.3,0,0.5-0.2,0.5-0.6c0-0.7,0-1.4,0-2.2c0-0.5,0.4-0.7,0.9-0.5c0.2,0.1,0.1,0.2,0.1,0.4
	C344.1,54.1,344.1,54.7,344.1,55.2C344.1,55.2,344.1,55.2,344.1,55.2z"/>
<path class="st4" d="M279.3,55.1c0,0.4-0.1,0.9-0.3,1.3c-0.3,0.7-0.9,1-1.7,0.9c-0.7-0.1-1.1-0.4-1.3-1.1c-0.2-0.6-0.2-1.2,0-1.8
	c0.2-0.9,0.8-1.4,1.7-1.4c0.8,0,1.4,0.5,1.6,1.4C279.2,54.7,279.3,54.9,279.3,55.1z M278.2,55.2c0-0.3,0-0.5-0.1-0.8
	c-0.1-0.3-0.2-0.5-0.5-0.5c-0.3,0-0.5,0.2-0.6,0.5c-0.1,0.5-0.1,1,0,1.5c0.1,0.3,0.2,0.5,0.5,0.5c0.3,0,0.5-0.2,0.6-0.4
	C278.2,55.7,278.2,55.5,278.2,55.2z"/>
<path class="st4" d="M323,55.2c0-0.4,0.1-0.7,0.2-1c0.3-0.7,0.9-1.1,1.7-1.1c0.8,0,1.3,0.5,1.5,1.2c0.1,0.6,0.1,1.1,0,1.7
	c-0.2,0.9-0.8,1.4-1.7,1.3c-0.8,0-1.4-0.5-1.5-1.4C323,55.7,323,55.4,323,55.2z M324.1,55.1c0,0.3,0,0.6,0.1,0.8
	c0.1,0.3,0.2,0.5,0.5,0.5c0.3,0,0.5-0.2,0.6-0.5c0.2-0.5,0.2-1.1,0-1.6c-0.1-0.2-0.2-0.4-0.5-0.4c-0.3,0-0.5,0.1-0.6,0.4
	C324.1,54.6,324.1,54.9,324.1,55.1z"/>
<path class="st4" d="M273,54.5c0,0.3,0,0.5,0.1,0.8c0.2,1,0.8,1.3,1.7,0.9c0.4-0.2,0.5,0,0.6,0.3c0.2,0.4-0.1,0.5-0.3,0.6
	c-1.5,0.7-2.8,0-3.1-1.5c-0.2-0.9-0.2-1.9,0.2-2.7c0.6-1.2,2-1.6,3.1-0.8c0.2,0.1,0.3,0.3,0.1,0.5c-0.1,0.2-0.2,0.4-0.5,0.3
	c-1.2-0.4-1.8-0.1-1.9,1.2C273,54.1,273,54.3,273,54.5C273,54.5,273,54.5,273,54.5z"/>
<path class="st4" d="M286.3,55.5c-0.3,0-0.6,0-0.8,0c-0.4,0-0.4,0.2-0.3,0.4c0.2,0.5,0.7,0.6,1.4,0.3c0.4-0.1,0.4,0,0.6,0.3
	c0.1,0.3,0,0.4-0.2,0.5c-1.4,0.6-2.9,0.2-2.9-1.8c0-0.5,0.1-0.9,0.3-1.3c0.3-0.6,0.8-0.9,1.5-0.9c0.6,0,1.1,0.4,1.4,1.1
	c0.1,0.4,0.3,0.9,0.1,1.3C287.1,55.7,286.6,55.5,286.3,55.5z M285.7,54.8c0.2-0.2,0.6,0.2,0.6-0.3c0-0.3-0.1-0.6-0.5-0.7
	c-0.3,0-0.6,0.3-0.6,0.7C285.2,55,285.6,54.7,285.7,54.8z"/>
<path class="st4" d="M294,55.5c-0.3,0-0.5,0-0.8,0c-0.4,0-0.3,0.1-0.2,0.4c0.2,0.5,0.7,0.6,1.4,0.4c0.3-0.1,0.4-0.1,0.5,0.2
	c0.1,0.3,0,0.4-0.3,0.5c-0.7,0.3-1.5,0.4-2.2-0.1c-0.8-0.6-0.8-1.5-0.6-2.4c0.2-1.2,1.1-1.7,2.1-1.4c0.8,0.2,1.4,1.5,1.1,2.3
	c-0.1,0.2-0.2,0.1-0.3,0.2C294.6,55.5,294.3,55.5,294,55.5z M293.5,54.8c0.2-0.2,0.6,0.2,0.6-0.2c0.1-0.3-0.2-0.7-0.5-0.7
	c-0.3,0-0.6,0.4-0.6,0.7C293,55,293.3,54.7,293.5,54.8z"/>
<path class="st4" d="M337.8,47.1c0,0.6,0,1.1,0,1.7c0,0.1,0,0.3-0.1,0.3c-0.2,0-0.4,0.1-0.4-0.1c-0.1-0.2-0.1-0.2-0.3-0.1
	c-1.2,0.7-2.3,0.2-2.6-1.2c-0.1-0.7-0.1-1.4,0.3-2c0.5-0.8,1.4-1,2.2-0.5c0.2,0.1,0.2,0.1,0.3-0.1c0.1-0.2,0.3-0.1,0.4-0.1
	c0.2,0,0.1,0.2,0.1,0.3C337.7,45.9,337.7,46.5,337.8,47.1C337.8,47.1,337.8,47.1,337.8,47.1z M337,47C337,47,337,47,337,47
	c0-0.2,0-0.3,0-0.5c0.1-0.5-0.2-0.8-0.6-0.9c-0.4-0.1-0.9,0-1.1,0.5c-0.3,0.6-0.3,1.3,0,2c0.2,0.4,0.6,0.6,1.1,0.5
	c0.4-0.1,0.7-0.4,0.7-0.9C337,47.4,337,47.2,337,47z"/>
<path class="st4" d="M280.7,45.3c0-0.3,0.2-0.4,0.4-0.3c0.3,0,0.2,0.3,0.2,0.4c0,1.1,0,2.2,0,3.3c0,0.1,0.1,0.3-0.2,0.4
	c-0.2,0-0.4,0.1-0.5-0.2c0-0.2-0.1-0.1-0.2-0.1c-1.4,0.7-2.4,0.2-2.6-1.3c-0.1-0.4,0-0.7,0.1-1.1C278.2,45.2,279.5,44.4,280.7,45.3z
	 M280.6,47C280.6,47,280.6,47,280.6,47c0-0.1,0-0.3,0-0.4c0-0.6-0.2-0.9-0.7-1c-0.5-0.1-0.9,0.1-1.1,0.6c-0.3,0.6-0.3,1.2,0,1.9
	c0.2,0.4,0.6,0.6,1.1,0.5c0.5-0.1,0.7-0.4,0.7-0.9C280.6,47.4,280.6,47.2,280.6,47z"/>
<path class="st4" d="M301.7,48.7c-1.4,0.9-2.6,0.4-2.8-1.2c-0.1-0.6,0-1.2,0.3-1.7c0.5-0.8,1.4-1.1,2.3-0.6c0.1,0.1,0.2,0.2,0.3-0.1
	c0.1-0.2,0.3-0.1,0.5-0.1c0.2,0,0.1,0.2,0.1,0.3c0,1.2,0,2.3,0,3.5c0,0.2,0,0.3-0.2,0.3C301.9,49.1,301.7,49.1,301.7,48.7z
	 M301.6,47C301.6,47,301.6,47,301.6,47c0-0.1,0-0.3,0-0.4c0-0.6-0.2-0.9-0.7-1c-0.5-0.1-1,0.2-1.2,0.7c-0.2,0.6-0.2,1.2,0,1.7
	c0.2,0.4,0.6,0.6,1.1,0.5c0.5-0.1,0.7-0.3,0.8-0.8C301.6,47.4,301.6,47.2,301.6,47z"/>
<path class="st4" d="M326.2,46.9c0,1.6-0.9,2.4-2.4,2.2c-0.2,0-0.4-0.1-0.6-0.2c-0.8-0.5-1-2-0.5-3c0.4-0.8,1.4-1.2,2.3-0.9
	C325.8,45.2,326.2,45.9,326.2,46.9z M325.4,47c0-0.2,0-0.3,0-0.5c-0.1-0.6-0.4-0.9-0.9-0.9c-0.6,0-1,0.3-1.2,0.9
	c-0.1,0.3-0.1,0.7-0.1,1c0.1,0.7,0.5,1.1,1,1.1c0.6,0,1.1-0.4,1.2-1C325.4,47.3,325.4,47.2,325.4,47z"/>
<path class="st4" d="M292.4,47c0,1.5-1,2.4-2.4,2.1c-0.2,0-0.5-0.1-0.7-0.3c-0.7-0.6-0.9-1.9-0.4-2.9c0.4-0.8,1.2-1.2,2.2-0.9
	C292,45.1,292.5,45.9,292.4,47z M291.7,47c0-0.2,0-0.3-0.1-0.5c-0.1-0.6-0.5-0.9-0.9-0.9c-0.6,0-1,0.3-1.2,0.9
	c-0.1,0.3-0.1,0.6-0.1,1c0.1,0.7,0.4,1.1,1,1.2c0.6,0,1.1-0.4,1.2-1.1C291.7,47.3,291.7,47.1,291.7,47z"/>
<path class="st4" d="M364.3,46.9c0,1.6-0.9,2.4-2.3,2.2c-0.2,0-0.5-0.1-0.7-0.3c-0.7-0.5-0.9-1.9-0.5-2.9c0.4-0.8,1.2-1.2,2.2-1
	C363.8,45.1,364.3,45.8,364.3,46.9z M363.5,47c0-0.2,0-0.5-0.1-0.8c-0.3-0.7-1-0.9-1.6-0.5c-0.4,0.3-0.5,0.7-0.5,1.2
	c-0.1,1,0.3,1.6,1,1.6C363.1,48.5,363.5,48,363.5,47z"/>
<path class="st4" d="M345.2,47.1c0-1.6,1-2.4,2.4-2.1c0.6,0.1,1,0.5,1.2,1.1c0.2,0.5,0.2,1,0.1,1.6c-0.2,1.1-1,1.7-2.1,1.5
	C345.7,49,345.2,48.3,345.2,47.1z M345.9,47.2c0,0.1,0.1,0.4,0.1,0.6c0.2,0.6,0.8,0.9,1.4,0.6c0.6-0.3,0.7-0.8,0.7-1.3
	c0-0.5,0-1.1-0.5-1.4c-0.1-0.1-0.3-0.1-0.5-0.1C346.3,45.5,345.9,46.1,345.9,47.2z"/>
<path class="st4" d="M351,45.4c0.6-0.4,1.1-0.6,1.7-0.5c0.6,0.1,0.9,0.5,1,1.1c0.1,0.9,0,1.9,0.1,2.8c0,0.3-0.2,0.3-0.4,0.3
	c-0.2,0-0.3-0.1-0.3-0.3c0-0.8,0-1.5,0-2.3c0-0.7-0.3-1-0.9-1c-0.7,0-1,0.3-1,0.9c0,0.7,0,1.4,0,2.2c0,0.3,0,0.4-0.4,0.4
	c-0.3,0-0.4-0.1-0.4-0.4c0-1.1,0-2.2,0-3.3c0-0.2,0-0.4,0.3-0.4C350.9,45,351.1,44.9,351,45.4z"/>
<path class="st4" d="M319.1,57.3c-0.5,0-0.8-0.1-1.1-0.2c-0.2-0.1-0.5-0.2-0.3-0.5c0.2-0.3,0.3-0.4,0.6-0.2c0.2,0.1,0.5,0.2,0.8,0.1
	c0.2-0.1,0.3-0.1,0.3-0.3c0-0.2-0.1-0.3-0.2-0.4c-0.2-0.1-0.5-0.2-0.7-0.3c-0.6-0.3-0.8-0.7-0.7-1.2c0.1-0.6,0.4-1,1-1.1
	c0.5-0.1,0.9-0.1,1.4,0.2c0.2,0.1,0.3,0.2,0.2,0.4c-0.1,0.2-0.2,0.5-0.5,0.3c-0.1-0.1-0.2-0.1-0.3-0.1c-0.3,0-0.6-0.1-0.7,0.2
	c-0.1,0.4,0.2,0.5,0.4,0.6c0.1,0,0.2,0.1,0.4,0.1c0.7,0.3,1,0.7,0.8,1.4c-0.1,0.6-0.6,1-1.2,1.1C319.2,57.3,319.1,57.3,319.1,57.3z"
	/>
<path class="st4" d="M315.6,57.3c-0.2,0-0.6-0.1-0.9-0.2c-0.2-0.1-0.5-0.2-0.3-0.5c0.2-0.3,0.3-0.4,0.6-0.2c0.2,0.1,0.5,0.2,0.8,0.1
	c0.2-0.1,0.3-0.1,0.3-0.3c0-0.2-0.1-0.3-0.2-0.4c-0.2-0.1-0.5-0.2-0.7-0.3c-0.6-0.3-0.8-0.7-0.7-1.3c0.1-0.5,0.4-0.9,1-1.1
	c0.5-0.1,0.9-0.1,1.3,0.2c0.2,0.1,0.4,0.2,0.2,0.5c-0.1,0.2-0.2,0.5-0.6,0.2c-0.1-0.1-0.2-0.1-0.3-0.1c-0.3,0-0.6,0-0.6,0.3
	c-0.1,0.3,0.2,0.4,0.4,0.5c0.1,0,0.2,0.1,0.3,0.1c0.8,0.3,1.1,0.8,1,1.4C317.1,56.9,316.5,57.3,315.6,57.3z"/>
<path class="st4" d="M350,57.3c-0.2,0-0.6-0.1-0.9-0.2c-0.2-0.1-0.5-0.2-0.3-0.5c0.2-0.3,0.3-0.4,0.6-0.2c0.2,0.1,0.5,0.2,0.8,0.1
	c0.2-0.1,0.3-0.1,0.3-0.3c0-0.2-0.1-0.3-0.2-0.4c-0.2-0.1-0.5-0.2-0.7-0.3c-0.5-0.2-0.8-0.6-0.8-1.2c0-0.6,0.4-1,0.9-1.2
	c0.5-0.1,0.9-0.1,1.4,0.1c0.2,0.1,0.4,0.2,0.3,0.5c-0.1,0.2-0.2,0.5-0.6,0.2c-0.1-0.1-0.2-0.1-0.4-0.1c-0.2,0-0.5,0-0.6,0.3
	c-0.1,0.3,0.2,0.4,0.4,0.5c0.1,0,0.2,0.1,0.3,0.1c0.8,0.3,1.1,0.8,1,1.5C351.5,56.9,350.9,57.3,350,57.3z"/>
<path class="st4" d="M294.7,45.4c0.4-0.3,0.8-0.5,1.2-0.5c0.8,0,1.4,0.5,1.5,1.3c0.1,0.9,0,1.7,0,2.6c0,0.3-0.1,0.3-0.3,0.3
	c-0.2,0-0.4,0-0.4-0.3c0-0.7,0-1.5,0-2.2c0-0.9-0.5-1.2-1.4-0.9c-0.5,0.1-0.6,0.5-0.6,0.9c0,0.7,0,1.4,0,2.1c0,0.3,0,0.4-0.3,0.4
	c-0.3,0-0.4-0.1-0.4-0.4c0-1.1,0-2.2,0-3.3c0-0.2-0.1-0.4,0.2-0.4C294.5,45,294.7,45,294.7,45.4z"/>
<path class="st4" d="M356.1,54c0-0.7,0-1.5,0-2.2c0-0.2,0-0.5,0.3-0.4c0.3,0,0.7-0.2,0.7,0.4c0,1.3,0,2.7,0,4c0,0.3-0.2,0.7,0.3,0.8
	c0.2,0.1,0.1,0.6-0.2,0.7c-0.6,0.2-1.1-0.1-1.2-0.8C356.2,55.6,356.2,54.8,356.1,54C356.2,54,356.2,54,356.1,54z"/>
<path class="st4" d="M282.1,54c0-0.7,0-1.4,0-2.2c0-0.3,0-0.5,0.4-0.5c0.3,0,0.7-0.1,0.7,0.5c0,0.9,0,1.8,0,2.7c0,0.5,0,0.9,0,1.4
	c0,0.3-0.1,0.5,0.3,0.6c0.2,0,0.1,0.3,0.1,0.5c0,0.2-0.1,0.2-0.2,0.3c-0.6,0.2-1.2-0.1-1.2-0.8C282.1,55.6,282.1,54.8,282.1,54
	C282.1,54,282.1,54,282.1,54z"/>
<path class="st4" d="M279.9,54c0-0.8,0-1.5,0-2.3c0-0.3,0.1-0.4,0.4-0.4c0.3,0,0.6-0.2,0.7,0.4c0.1,1.4,0,2.8,0.1,4.2
	c0,0.2-0.1,0.5,0.3,0.6c0.2,0.1,0.2,0.6,0,0.7c-0.5,0.3-1.2,0-1.2-0.6c-0.1-0.6,0-1.3,0-1.9C279.9,54.4,279.9,54.2,279.9,54
	C279.9,54,279.9,54,279.9,54z"/>
<path class="st4" d="M315.5,49.1c-0.4,0-0.7-0.1-1.1-0.3c-0.2-0.1-0.3-0.2-0.2-0.5c0.1-0.3,0.2-0.2,0.5-0.1c0.4,0.2,0.8,0.3,1.2,0.1
	c0.2-0.1,0.4-0.3,0.4-0.5c0-0.3-0.2-0.4-0.4-0.5c-0.3-0.1-0.6-0.2-0.9-0.3c-0.6-0.2-0.8-0.5-0.9-1c0-0.5,0.3-0.9,0.8-1.1
	c0.6-0.2,1.1-0.1,1.7,0.2c0.2,0.1,0.3,0.2,0.1,0.4c-0.1,0.2-0.2,0.3-0.5,0.1c-0.3-0.2-0.6-0.2-0.9-0.2c-0.3,0-0.5,0.2-0.6,0.5
	c0,0.3,0.2,0.5,0.4,0.6c0.2,0.1,0.4,0.1,0.6,0.2c0.8,0.2,1.1,0.6,1,1.2c0,0.6-0.5,1-1.2,1.1C315.7,49.1,315.6,49.1,315.5,49.1z"/>
<path class="st4" d="M319.6,49.1c-0.4,0-0.7-0.1-1.1-0.3c-0.2-0.1-0.3-0.2-0.2-0.4c0.1-0.2,0.2-0.2,0.4-0.1c0.3,0.2,0.7,0.3,1,0.2
	c0.3-0.1,0.6-0.2,0.6-0.5c0-0.4-0.2-0.5-0.5-0.6c-0.3-0.1-0.6-0.2-0.9-0.3c-0.4-0.1-0.7-0.4-0.7-0.9c0-0.5,0.1-0.8,0.5-1.1
	c0.5-0.4,1.5-0.3,2,0c0.2,0.1,0.2,0.3,0.1,0.4c-0.1,0.2-0.2,0.2-0.4,0.1c-0.3-0.2-0.7-0.3-1.1-0.2c-0.2,0.1-0.4,0.2-0.4,0.4
	c0,0.3,0.1,0.4,0.3,0.5c0.2,0.1,0.5,0.2,0.7,0.2c0.8,0.3,1.1,0.6,1,1.3c-0.1,0.6-0.6,1-1.3,1.1C319.8,49.1,319.7,49.1,319.6,49.1z"
	/>
<path class="st4" d="M328.2,47.1c0,1.2,0.7,1.7,1.8,1.3c0.2-0.1,0.4-0.2,0.5,0.1c0.1,0.3-0.2,0.3-0.3,0.4c-0.8,0.3-1.5,0.4-2.2-0.2
	c-0.7-0.7-0.8-1.6-0.5-2.6c0.2-0.8,0.8-1.2,1.6-1.3c0.4,0,0.9,0.1,1.2,0.3c0.2,0.1,0.2,0.3,0.1,0.5c-0.1,0.2-0.2,0.2-0.4,0.1
	C329,45.2,328.2,45.8,328.2,47.1z"/>
<path class="st4" d="M357.9,47.3c0-0.5,0-0.9,0-1.4c0-0.2,0-0.4-0.3-0.3c-0.2,0-0.3-0.1-0.3-0.3c0-0.2,0.1-0.3,0.3-0.3
	c0.4,0,0.3-0.3,0.3-0.4c0.1-1.1,0.9-1.7,1.9-1.4c0.2,0.1,0.3,0.1,0.3,0.4c-0.1,0.2-0.2,0.2-0.4,0.2c-0.6-0.1-0.9,0-1,0.4
	c-0.2,0.7-0.1,0.8,0.5,0.8c0.2,0,0.4,0,0.3,0.3c0,0.3-0.2,0.3-0.4,0.2c-0.5-0.1-0.7,0.1-0.6,0.6c0,0.8,0,1.7,0,2.5
	c0,0.3-0.1,0.4-0.4,0.4c-0.3,0-0.4-0.1-0.3-0.4C357.9,48.2,357.9,47.8,357.9,47.3z"/>
<path class="st4" d="M283.2,46.9c0-0.3,0-0.6,0-0.9c0-0.2,0.1-0.5-0.4-0.5c-0.2,0-0.2-0.1-0.2-0.3c0-0.1,0-0.3,0.2-0.3
	c0.5,0.1,0.4-0.2,0.4-0.5c0-0.1,0-0.3,0-0.4c0-0.2,0.2-0.2,0.4-0.2c0.2,0,0.3,0,0.4,0.2c0,0.1,0,0.2,0,0.3c-0.1,0.5,0.1,0.7,0.6,0.6
	c0.1,0,0.3-0.1,0.4,0.1c0.1,0.2,0,0.5-0.3,0.5c-0.7,0-0.7,0-0.7,0.7c0,0.5,0,1.1,0,1.6c0,0.6,0.2,0.7,0.8,0.6c0.2,0,0.4-0.2,0.4,0.2
	c0.1,0.3-0.1,0.3-0.3,0.4c-0.9,0.3-1.6-0.1-1.6-1.1C283.2,47.6,283.2,47.3,283.2,46.9C283.2,46.9,283.2,46.9,283.2,46.9z"/>
<path class="st4" d="M339.7,46.9c0-0.3,0-0.5,0-0.8c0-0.3,0.1-0.7-0.4-0.6c-0.2,0-0.1-0.2-0.1-0.3c0-0.1,0-0.3,0.2-0.2
	c0.5,0.1,0.4-0.3,0.4-0.6c0-0.2-0.1-0.4,0.1-0.6c0.3-0.1,0.5,0,0.6,0.4c0,0,0,0.1,0,0.1c-0.1,0.5,0.1,0.7,0.6,0.6
	c0.1,0,0.4-0.1,0.4,0.1c0.1,0.2,0.1,0.5-0.3,0.5c-0.7,0-0.7,0-0.7,0.7c0,0.5,0,1,0,1.5c0,0.7,0.2,0.8,0.8,0.7c0.2,0,0.3-0.1,0.4,0.2
	c0.1,0.3-0.1,0.3-0.3,0.4c-1,0.3-1.6-0.1-1.6-1.1C339.7,47.6,339.7,47.3,339.7,46.9C339.7,46.9,339.7,46.9,339.7,46.9z"/>
<path class="st4" d="M304,45.9c0-0.7,0-1.4,0-2.2c0-0.2-0.2-0.5,0.3-0.6c0.5,0,0.4,0.3,0.4,0.6c0,1.4,0,2.7,0,4.1
	c0,0.3-0.1,0.6,0.3,0.8c0.1,0,0.2,0.4-0.1,0.5c-0.4,0.1-0.8-0.1-0.9-0.4c-0.1-0.3-0.1-0.7-0.1-1C304,47,304,46.5,304,45.9
	C304,45.9,304,45.9,304,45.9z"/>
<path class="st4" d="M313.7,55.2c0,0.6,0,1.1,0,1.7c0,0.4-0.3,0.3-0.5,0.3c-0.2,0-0.5,0.1-0.5-0.3c0-1.1,0-2.3,0-3.4
	c0-0.5,0.3-0.3,0.6-0.3c0.2,0,0.5,0,0.5,0.3C313.6,54.1,313.7,54.6,313.7,55.2z"/>
<path class="st4" d="M358.4,55.2c0-0.6,0-1.1,0-1.7c0-0.4,0.2-0.4,0.5-0.4c0.3,0,0.6-0.1,0.5,0.4c0,1.1,0,2.2,0,3.4
	c0,0.4-0.3,0.4-0.5,0.4c-0.2,0-0.6,0.1-0.5-0.4C358.4,56.3,358.4,55.7,358.4,55.2z"/>
<path class="st1" d="M322.3,55.2c0,0.6,0,1.1,0,1.7c0,0.4-0.2,0.4-0.5,0.4c-0.2,0-0.5,0.1-0.5-0.3c0-1.1,0-2.3,0-3.4
	c0-0.4,0.3-0.3,0.5-0.3c0.3,0,0.5-0.1,0.5,0.4C322.2,54.1,322.3,54.6,322.3,55.2z"/>
<path class="st4" d="M366.5,45.8c0.3-0.4,0.5-0.7,0.9-0.8c0.2,0,0.4-0.2,0.5,0.1c0,0.2,0.1,0.4-0.3,0.5c-0.6,0.1-0.9,0.6-1,1.2
	c-0.1,0.6-0.1,1.3-0.1,1.9c0,0.3-0.1,0.4-0.4,0.4c-0.3,0-0.3-0.1-0.3-0.4c0-1.1,0-2.2,0-3.3c0-0.2-0.1-0.5,0.3-0.5
	c0.3,0,0.4,0.2,0.4,0.4C366.5,45.5,366.5,45.6,366.5,45.8z"/>
<path class="st4" d="M287.2,47.1c0,0.6,0,1.1,0,1.7c0,0.3-0.1,0.3-0.3,0.3c-0.2,0-0.4,0-0.4-0.3c0-1.1,0-2.3,0-3.4
	c0-0.3,0.1-0.4,0.4-0.4c0.3,0,0.4,0.1,0.4,0.4C287.2,45.9,287.2,46.5,287.2,47.1z"/>
<path class="st1" d="M343.6,47c0,0.5,0,1.1,0,1.6c0,0.3,0,0.4-0.4,0.4c-0.3,0-0.3-0.1-0.3-0.4c0-1.1,0-2.2,0-3.4
	c0-0.2,0-0.4,0.3-0.4c0.3,0,0.4,0.1,0.4,0.4C343.6,45.9,343.6,46.5,343.6,47z"/>
<path class="st1" d="M332.8,47c0,0.6,0,1.2,0,1.7c0,0.2-0.1,0.3-0.3,0.3c-0.2,0-0.4,0-0.4-0.3c0-1.1,0-2.3,0-3.5
	c0-0.3,0.1-0.3,0.3-0.3c0.2,0,0.4,0,0.3,0.3C332.7,45.8,332.8,46.4,332.8,47z"/>
<path class="st4" d="M313.8,51.9c0,0.4-0.3,0.6-0.7,0.6c-0.4,0-0.6-0.3-0.6-0.6c0-0.4,0.3-0.6,0.6-0.6
	C313.5,51.3,313.8,51.5,313.8,51.9z"/>
<path class="st4" d="M358.9,52.5c-0.4,0-0.6-0.3-0.6-0.7c0-0.4,0.2-0.6,0.6-0.6c0.3,0,0.6,0.3,0.6,0.6
	C359.5,52.3,359.2,52.5,358.9,52.5z"/>
<path class="st4" d="M322.4,51.9c0,0.4-0.3,0.6-0.6,0.6c-0.4,0-0.6-0.3-0.6-0.6c0-0.4,0.3-0.6,0.6-0.6
	C322.1,51.3,322.4,51.5,322.4,51.9z"/>
<path class="st4" d="M287.4,43.7c0,0.3-0.2,0.5-0.5,0.5c-0.3,0-0.5-0.2-0.5-0.5c0-0.3,0.2-0.5,0.5-0.5
	C287.2,43.2,287.3,43.4,287.4,43.7z"/>
<path class="st4" d="M343.3,44.2c-0.3,0-0.5-0.2-0.5-0.5c0-0.3,0.2-0.5,0.5-0.5c0.3,0,0.5,0.2,0.5,0.5
	C343.8,44,343.6,44.2,343.3,44.2z"/>
<path class="st4" d="M332.4,43.2c0.3,0,0.5,0.2,0.5,0.5c0,0.3-0.2,0.5-0.5,0.5c-0.3,0-0.5-0.2-0.5-0.5
	C331.9,43.4,332.1,43.3,332.4,43.2z"/>
<g>
	<g>
		<rect id="Rectangle" x="124.7" y="25.9" class="st5" width="21" height="21.9"/>
		<path id="Shape_00000004503963772281965500000004689748023012954798_" class="st6" d="M134.9,40.5l3.3-0.9l1.3,4.3L134.9,40.5z
			 M142.4,35h-5.7l-1.8-5.5l-1.8,5.5h-5.5l4.6,3.4l-1.8,5.5l4.6-3.4l2.8-2.1L142.4,35L142.4,35L142.4,35L142.4,35z"/>
	</g>
	<g>
		<rect id="Rectangle_1_" x="150.3" y="25.9" class="st5" width="21" height="21.9"/>
		<path id="Shape_1_" class="st6" d="M160.6,40.5l3.3-0.9l1.3,4.3L160.6,40.5z M168.1,35h-5.7l-1.8-5.5l-1.8,5.5h-5.5l4.6,3.4
			l-1.8,5.5l4.6-3.4l2.8-2.1L168.1,35L168.1,35L168.1,35L168.1,35z"/>
	</g>
	<g>
		<rect id="Rectangle_2_" x="176" y="25.9" class="st5" width="21" height="21.9"/>
		<path id="Shape_2_" class="st6" d="M186.3,40.5l3.3-0.9l1.3,4.3L186.3,40.5z M193.7,35H188l-1.8-5.5l-1.8,5.5h-5.5l4.6,3.4
			l-1.8,5.5l4.6-3.4l2.8-2.1L193.7,35L193.7,35L193.7,35L193.7,35z"/>
	</g>
	<g>
		<rect id="Rectangle_3_" x="201.7" y="25.9" class="st5" width="21" height="21.9"/>
		<path id="Shape_3_" class="st6" d="M211.9,40.5l3.3-0.9l1.3,4.3L211.9,40.5z M219.4,35h-5.7l-1.8-5.5l-1.8,5.5h-5.5l4.6,3.4
			l-1.8,5.5l4.6-3.4l2.8-2.1L219.4,35L219.4,35L219.4,35L219.4,35z"/>
	</g>
	<g>
		<rect id="Rectangle_4_" x="227.3" y="25.9" class="st5" width="21" height="21.9"/>
		<path id="Shape_4_" class="st6" d="M237.6,40.5l3.3-0.9l1.3,4.3L237.6,40.5z M245.1,35h-5.7l-1.8-5.5l-1.8,5.5h-5.5l4.6,3.4
			l-1.8,5.5l4.6-3.4l2.8-2.1L245.1,35L245.1,35L245.1,35L245.1,35z"/>
	</g>
</g>
<path id="Shape" class="st7" d="M176.1,55.7h5.2v1h-2v5.4h-1.2v-5.4h-2V55.7L176.1,55.7z M181,57.4h1v0.9l0,0c0-0.1,0.1-0.2,0.2-0.4
	c0.1-0.2,0.2-0.2,0.3-0.3c0.1-0.1,0.3-0.2,0.4-0.2c0.1-0.1,0.3-0.1,0.5-0.1c0.1,0,0.2,0,0.2,0h0.1v1c-0.1,0-0.1,0-0.2,0
	c-0.1,0-0.1,0-0.2,0c-0.2,0-0.3,0-0.5,0.1c-0.2,0.1-0.3,0.2-0.4,0.3c-0.1,0.1-0.2,0.3-0.3,0.5c-0.1,0.2-0.1,0.4-0.1,0.7v2.2h-1V57.4
	L181,57.4z M188.4,62.1h-1v-0.6l0,0c-0.1,0.2-0.3,0.4-0.6,0.6c-0.2,0.1-0.5,0.2-0.8,0.2c-0.6,0-1-0.1-1.3-0.5
	c-0.3-0.4-0.4-0.8-0.4-1.4v-2.9h1v2.8c0,0.4,0.1,0.7,0.2,0.9c0.2,0.2,0.4,0.3,0.7,0.3c0.2,0,0.4,0,0.5-0.1c0.1-0.1,0.3-0.2,0.3-0.3
	c0.1-0.1,0.2-0.2,0.2-0.4c0-0.2,0.1-0.3,0.1-0.5v-2.7h1v4.6H188.4z M190.1,60.6c0,0.3,0.1,0.5,0.3,0.6c0.2,0.1,0.4,0.2,0.7,0.2
	c0.1,0,0.2,0,0.3,0c0.1,0,0.2,0,0.3-0.1c0.1,0,0.2-0.1,0.3-0.2c0.1-0.1,0.1-0.2,0.1-0.3s-0.1-0.2-0.1-0.3c-0.1-0.1-0.2-0.1-0.3-0.2
	c-0.1,0-0.3-0.1-0.5-0.1c-0.2,0-0.4-0.1-0.5-0.1c-0.2,0-0.4-0.1-0.5-0.2c-0.1-0.1-0.3-0.1-0.5-0.2c-0.1-0.1-0.3-0.2-0.3-0.4
	c-0.1-0.2-0.1-0.4-0.1-0.6c0-0.3,0.1-0.5,0.2-0.6c0.1-0.1,0.3-0.3,0.5-0.4c0.2-0.1,0.4-0.2,0.6-0.2s0.5-0.1,0.7-0.1s0.5,0,0.7,0.1
	c0.2,0,0.4,0.1,0.6,0.2c0.2,0.1,0.3,0.3,0.4,0.4c0.1,0.2,0.2,0.4,0.2,0.7h-1.1c0-0.2-0.2-0.4-0.3-0.5c-0.3-0.1-0.5-0.2-0.7-0.2
	c-0.1,0-0.2,0-0.3,0c-0.1,0-0.2,0-0.3,0.1c-0.1,0-0.2,0.1-0.2,0.1c-0.1,0.1-0.1,0.1-0.1,0.2c0,0.1,0,0.2,0.1,0.3
	c0.1,0.1,0.2,0.1,0.3,0.2c0.1,0,0.3,0.1,0.5,0.1s0.4,0.1,0.6,0.1c0.2,0,0.4,0.1,0.5,0.2c0.2,0.1,0.3,0.1,0.5,0.2
	c0.2,0.1,0.3,0.2,0.3,0.4c0.1,0.2,0.1,0.3,0.1,0.6s-0.1,0.5-0.2,0.7c-0.1,0.2-0.3,0.3-0.5,0.5c-0.1,0.2-0.3,0.3-0.5,0.3
	c-0.2,0-0.5,0.1-0.7,0.1c-0.3,0-0.6,0-0.8-0.1c-0.2-0.1-0.5-0.2-0.6-0.3c-0.2-0.1-0.3-0.3-0.4-0.5c-0.2-0.2-0.3-0.4-0.3-0.7H190.1
	L190.1,60.6z M193.5,57.4h0.8v-1.3h1v1.4h0.9v0.8h-0.9v2.5c0,0.1,0,0.2,0,0.3s0,0.1,0.1,0.2c0.1,0.1,0.1,0.1,0.1,0.1
	c0.1,0,0.2,0,0.3,0c0.1,0,0.1,0,0.2,0s0.1,0,0.2,0v0.7c-0.1,0-0.2,0-0.3,0c-0.1,0-0.2,0-0.3,0c-0.3,0-0.5,0-0.6-0.1
	c-0.2,0-0.3-0.1-0.4-0.2c-0.1-0.1-0.2-0.2-0.2-0.4c0-0.1-0.1-0.3-0.1-0.5v-2.7h-0.8V57.4L193.5,57.4z M196.9,57.4h1v0.7l0,0
	c0.1-0.3,0.3-0.5,0.6-0.6c0.3-0.1,0.5-0.2,0.8-0.2c0.4,0,0.7,0.1,1,0.2c0.3,0.1,0.5,0.3,0.7,0.5s0.3,0.5,0.4,0.8
	c0.1,0.3,0.1,0.6,0.1,1c0,0.3,0,0.6-0.1,0.9c-0.1,0.3-0.2,0.5-0.4,0.8c-0.2,0.2-0.4,0.4-0.6,0.5c-0.3,0.1-0.5,0.2-0.9,0.2
	c-0.1,0-0.3,0-0.4,0c-0.1,0-0.3-0.1-0.4-0.1c-0.1-0.1-0.3-0.1-0.4-0.2c-0.1-0.1-0.2-0.2-0.3-0.3l0,0v2.3h-1L196.9,57.4L196.9,57.4z
	 M200.5,59.8c0-0.2,0-0.4-0.1-0.6c-0.1-0.2-0.1-0.4-0.2-0.5c-0.1-0.1-0.2-0.3-0.4-0.4c-0.2-0.1-0.3-0.1-0.6-0.1
	c-0.4,0-0.8,0.1-1,0.4c-0.2,0.3-0.3,0.7-0.3,1.2c0,0.2,0,0.5,0.1,0.6c0.1,0.2,0.1,0.4,0.3,0.5c0.1,0.1,0.2,0.3,0.4,0.3
	c0.2,0.1,0.3,0.1,0.5,0.1c0.2,0,0.4,0,0.6-0.1c0.2-0.1,0.3-0.2,0.4-0.4c0.1-0.2,0.2-0.3,0.2-0.5C200.4,60.2,200.5,60,200.5,59.8z
	 M202.3,55.7h1v1h-1V55.7z M202.3,57.4h1v4.7h-1V57.4z M204.2,55.7h1v6.4h-1V55.7z M208.3,62.2c-0.4,0-0.7-0.1-1-0.2
	c-0.3-0.1-0.5-0.3-0.7-0.5s-0.4-0.5-0.5-0.8c-0.1-0.3-0.2-0.6-0.2-1c0-0.4,0.1-0.7,0.2-1c0.1-0.3,0.3-0.6,0.5-0.8
	c0.2-0.2,0.4-0.4,0.7-0.5c0.3-0.1,0.6-0.2,1-0.2c0.4,0,0.7,0.1,1,0.2c0.3,0.1,0.5,0.3,0.7,0.5c0.2,0.2,0.4,0.5,0.5,0.8
	c0.1,0.3,0.2,0.6,0.2,1c0,0.4-0.1,0.7-0.2,1c-0.1,0.3-0.3,0.6-0.5,0.8c-0.2,0.2-0.4,0.4-0.7,0.5C209,62.1,208.7,62.2,208.3,62.2z
	 M208.3,61.4c0.2,0,0.4,0,0.6-0.1c0.2-0.1,0.3-0.2,0.4-0.4s0.2-0.3,0.2-0.5s0.1-0.4,0.1-0.6s0-0.4-0.1-0.6c0-0.2-0.1-0.4-0.2-0.5
	c-0.1-0.1-0.2-0.3-0.4-0.4c-0.2-0.1-0.4-0.1-0.6-0.1s-0.4,0-0.6,0.1c-0.2,0.1-0.3,0.2-0.4,0.4c-0.1,0.2-0.2,0.3-0.2,0.5
	s-0.1,0.4-0.1,0.6s0,0.4,0.1,0.6c0,0.2,0.1,0.4,0.2,0.5c0.1,0.2,0.2,0.3,0.4,0.4C207.9,61.3,208.1,61.4,208.3,61.4z M211,57.4h0.8
	v-1.3h1v1.4h0.9v0.8h-0.9v2.5c0,0.1,0,0.2,0,0.3s0,0.1,0.1,0.2c0.1,0.1,0.1,0.1,0.1,0.1c0.1,0,0.2,0,0.3,0c0.1,0,0.1,0,0.2,0
	s0.1,0,0.2,0v0.7c-0.1,0-0.2,0-0.3,0c-0.1,0-0.2,0-0.3,0c-0.3,0-0.5,0-0.6-0.1c-0.2,0-0.3-0.1-0.4-0.2c-0.1-0.1-0.2-0.2-0.2-0.4
	c0-0.1-0.1-0.3-0.1-0.5v-2.7H211V57.4L211,57.4z"/>
<g id="Star">
	<polygon id="Path" class="st5" points="172.7,57.6 167.9,57.6 166.5,52.8 164.9,57.6 160.3,57.6 164,60.4 162.6,65.2 166.5,62.2 
		170.2,65.2 168.8,60.4 	"/>
	<polygon id="Path_00000139974370896774244940000013599419466242447510_" class="st6" points="169.1,61.5 168.8,60.4 166.5,62.2 	
		"/>
</g>
<g>
	<path d="M171.1,17.4c0,0.1,0,0.2,0,0.2s0,0.1,0,0.2s0,0.1-0.1,0.1c0,0-0.1,0-0.1,0h-3.4c-0.1,0-0.2,0-0.3-0.1
		c-0.1-0.1-0.1-0.2-0.1-0.3v-5.7c0-0.1,0-0.3,0.1-0.3c0.1-0.1,0.2-0.1,0.3-0.1h3.4c0,0,0.1,0,0.1,0c0,0,0,0,0.1,0.1c0,0,0,0.1,0,0.2
		c0,0.1,0,0.1,0,0.3c0,0.1,0,0.2,0,0.2c0,0.1,0,0.1,0,0.2c0,0,0,0.1-0.1,0.1s-0.1,0-0.1,0h-2.4V14h2c0,0,0.1,0,0.1,0
		c0,0,0,0,0.1,0.1s0,0.1,0,0.2c0,0.1,0,0.1,0,0.2c0,0.1,0,0.2,0,0.2s0,0.1,0,0.2c0,0,0,0.1-0.1,0.1c0,0-0.1,0-0.1,0h-2v1.8h2.4
		c0,0,0.1,0,0.1,0c0,0,0,0,0.1,0.1s0,0.1,0,0.2S171.1,17.3,171.1,17.4z"/>
	<path d="M176.2,17.6c0,0.1,0,0.1,0,0.1c0,0,0,0.1-0.1,0.1s-0.1,0-0.2,0s-0.2,0-0.4,0c-0.2,0-0.3,0-0.4,0c-0.1,0-0.2,0-0.2,0
		c-0.1,0-0.1,0-0.1-0.1c0,0,0,0-0.1-0.1l-0.9-1.6l-0.9,1.6c0,0,0,0.1-0.1,0.1c0,0-0.1,0-0.1,0.1c-0.1,0-0.1,0-0.2,0
		c-0.1,0-0.2,0-0.4,0c-0.2,0-0.3,0-0.4,0c-0.1,0-0.2,0-0.2,0c0,0-0.1-0.1-0.1-0.1c0,0,0-0.1,0-0.1l1.3-2.2l-1.2-2.1
		c0-0.1,0-0.1,0-0.2c0,0,0-0.1,0.1-0.1c0,0,0.1,0,0.2-0.1c0.1,0,0.2,0,0.4,0c0.2,0,0.3,0,0.4,0c0.1,0,0.2,0,0.2,0c0.1,0,0.1,0,0.1,0
		s0,0,0.1,0.1l0.8,1.5l0.8-1.5c0,0,0-0.1,0-0.1c0,0,0.1,0,0.1-0.1s0.1,0,0.2,0c0.1,0,0.2,0,0.3,0c0.2,0,0.3,0,0.4,0s0.2,0,0.2,0
		c0,0,0.1,0.1,0.1,0.1c0,0,0,0.1-0.1,0.2l-1.2,2L176.2,17.6z"/>
	<path d="M180.4,17c0,0.1,0,0.2,0,0.2c0,0.1,0,0.1,0,0.1c0,0,0,0.1,0,0.1c0,0,0,0.1-0.1,0.1c0,0-0.1,0.1-0.2,0.1s-0.2,0.1-0.3,0.1
		c-0.1,0-0.3,0.1-0.4,0.1c-0.2,0-0.3,0-0.5,0c-0.4,0-0.7-0.1-1-0.2s-0.5-0.3-0.7-0.5c-0.2-0.2-0.3-0.5-0.4-0.8
		c-0.1-0.3-0.1-0.7-0.1-1c0-0.5,0.1-0.8,0.2-1.2c0.1-0.3,0.3-0.6,0.5-0.8c0.2-0.2,0.5-0.4,0.7-0.5c0.3-0.1,0.6-0.2,0.9-0.2
		c0.1,0,0.3,0,0.4,0s0.3,0.1,0.4,0.1s0.2,0.1,0.3,0.1c0.1,0.1,0.2,0.1,0.2,0.1c0,0,0.1,0.1,0.1,0.1s0,0.1,0,0.1c0,0,0,0.1,0,0.1
		c0,0.1,0,0.1,0,0.2c0,0.2,0,0.3-0.1,0.4c0,0.1-0.1,0.1-0.1,0.1c-0.1,0-0.1,0-0.2-0.1c-0.1,0-0.1-0.1-0.2-0.2
		c-0.1-0.1-0.2-0.1-0.3-0.2S179.2,14,179,14c-0.3,0-0.6,0.1-0.8,0.4c-0.2,0.3-0.3,0.6-0.3,1.1c0,0.2,0,0.5,0.1,0.6s0.1,0.3,0.2,0.5
		c0.1,0.1,0.2,0.2,0.3,0.3c0.1,0.1,0.3,0.1,0.5,0.1c0.2,0,0.3,0,0.5-0.1s0.2-0.1,0.3-0.2c0.1-0.1,0.2-0.1,0.2-0.2
		c0.1-0.1,0.1-0.1,0.2-0.1c0,0,0.1,0,0.1,0c0,0,0,0,0,0.1c0,0,0,0.1,0,0.2S180.4,16.9,180.4,17z"/>
	<path d="M185.7,15.3c0,0.2,0,0.3-0.1,0.3c-0.1,0.1-0.2,0.1-0.3,0.1h-2.8c0,0.2,0,0.4,0.1,0.5c0,0.2,0.1,0.3,0.2,0.4
		c0.1,0.1,0.2,0.2,0.4,0.3c0.2,0.1,0.4,0.1,0.6,0.1c0.2,0,0.4,0,0.6,0c0.2,0,0.3-0.1,0.5-0.1c0.1,0,0.2-0.1,0.3-0.1
		c0.1,0,0.2,0,0.2,0c0,0,0.1,0,0.1,0c0,0,0,0,0.1,0.1c0,0,0,0.1,0,0.1s0,0.1,0,0.2c0,0.1,0,0.1,0,0.2s0,0.1,0,0.1c0,0,0,0.1,0,0.1
		c0,0,0,0-0.1,0.1c0,0-0.1,0.1-0.2,0.1c-0.1,0-0.2,0.1-0.4,0.1s-0.3,0.1-0.5,0.1c-0.2,0-0.4,0-0.6,0c-0.4,0-0.8-0.1-1.1-0.2
		c-0.3-0.1-0.6-0.3-0.8-0.5c-0.2-0.2-0.4-0.5-0.5-0.8c-0.1-0.3-0.2-0.7-0.2-1.1c0-0.4,0.1-0.8,0.2-1.1s0.3-0.6,0.5-0.8
		c0.2-0.2,0.5-0.4,0.8-0.5s0.6-0.2,1-0.2c0.4,0,0.7,0.1,1,0.2c0.3,0.1,0.5,0.3,0.7,0.5s0.3,0.4,0.4,0.7c0.1,0.3,0.1,0.6,0.1,0.9
		V15.3z M184.4,15c0-0.4-0.1-0.6-0.2-0.8c-0.2-0.2-0.4-0.3-0.7-0.3c-0.2,0-0.3,0-0.4,0.1c-0.1,0.1-0.2,0.1-0.3,0.2
		c-0.1,0.1-0.1,0.2-0.2,0.4c0,0.1-0.1,0.3-0.1,0.4H184.4z"/>
	<path d="M188.1,17.7C188.1,17.8,188,17.8,188.1,17.7c-0.1,0.1-0.1,0.1-0.1,0.2c-0.1,0-0.1,0-0.2,0s-0.2,0-0.3,0s-0.2,0-0.3,0
		s-0.2,0-0.2,0c-0.1,0-0.1,0-0.1-0.1s0-0.1,0-0.1v-6.7c0,0,0-0.1,0-0.1s0.1,0,0.1-0.1c0.1,0,0.1,0,0.2,0s0.2,0,0.3,0s0.2,0,0.3,0
		s0.2,0,0.2,0c0.1,0,0.1,0,0.1,0.1c0,0,0,0.1,0,0.1V17.7z"/>
	<path d="M190.7,17.7C190.7,17.8,190.7,17.8,190.7,17.7c-0.1,0.1-0.1,0.1-0.1,0.2c-0.1,0-0.1,0-0.2,0s-0.2,0-0.3,0s-0.2,0-0.3,0
		s-0.2,0-0.2,0c-0.1,0-0.1,0-0.1-0.1s0-0.1,0-0.1v-6.7c0,0,0-0.1,0-0.1s0.1,0,0.1-0.1c0.1,0,0.1,0,0.2,0s0.2,0,0.3,0s0.2,0,0.3,0
		s0.2,0,0.2,0c0.1,0,0.1,0,0.1,0.1c0,0,0,0.1,0,0.1V17.7z"/>
	<path d="M196.3,15.3c0,0.2,0,0.3-0.1,0.3c-0.1,0.1-0.2,0.1-0.3,0.1h-2.8c0,0.2,0,0.4,0.1,0.5c0,0.2,0.1,0.3,0.2,0.4
		c0.1,0.1,0.2,0.2,0.4,0.3c0.2,0.1,0.4,0.1,0.6,0.1c0.2,0,0.4,0,0.6,0c0.2,0,0.3-0.1,0.5-0.1c0.1,0,0.2-0.1,0.3-0.1
		c0.1,0,0.2,0,0.2,0c0,0,0.1,0,0.1,0c0,0,0,0,0.1,0.1c0,0,0,0.1,0,0.1s0,0.1,0,0.2c0,0.1,0,0.1,0,0.2s0,0.1,0,0.1c0,0,0,0.1,0,0.1
		c0,0,0,0-0.1,0.1c0,0-0.1,0.1-0.2,0.1c-0.1,0-0.2,0.1-0.4,0.1s-0.3,0.1-0.5,0.1c-0.2,0-0.4,0-0.6,0c-0.4,0-0.8-0.1-1.1-0.2
		c-0.3-0.1-0.6-0.3-0.8-0.5c-0.2-0.2-0.4-0.5-0.5-0.8c-0.1-0.3-0.2-0.7-0.2-1.1c0-0.4,0.1-0.8,0.2-1.1s0.3-0.6,0.5-0.8
		c0.2-0.2,0.5-0.4,0.8-0.5s0.6-0.2,1-0.2c0.4,0,0.7,0.1,1,0.2c0.3,0.1,0.5,0.3,0.7,0.5s0.3,0.4,0.4,0.7c0.1,0.3,0.1,0.6,0.1,0.9
		V15.3z M195,15c0-0.4-0.1-0.6-0.2-0.8c-0.2-0.2-0.4-0.3-0.7-0.3c-0.2,0-0.3,0-0.4,0.1c-0.1,0.1-0.2,0.1-0.3,0.2
		c-0.1,0.1-0.1,0.2-0.2,0.4c0,0.1-0.1,0.3-0.1,0.4H195z"/>
	<path d="M201.8,17.7C201.8,17.8,201.8,17.8,201.8,17.7c-0.1,0.1-0.1,0.1-0.1,0.2c0,0-0.1,0-0.2,0s-0.2,0-0.3,0c-0.1,0-0.2,0-0.3,0
		s-0.2,0-0.2,0c0,0-0.1,0-0.1-0.1c0,0,0-0.1,0-0.1v-2.6c0-0.2,0-0.4,0-0.5c0-0.1-0.1-0.2-0.1-0.3c-0.1-0.1-0.1-0.2-0.2-0.2
		c-0.1,0-0.2-0.1-0.3-0.1c-0.2,0-0.3,0.1-0.5,0.2c-0.2,0.1-0.3,0.3-0.5,0.5v3c0,0,0,0.1,0,0.1c0,0-0.1,0-0.1,0.1c-0.1,0-0.1,0-0.2,0
		s-0.2,0-0.3,0s-0.2,0-0.3,0s-0.2,0-0.2,0c-0.1,0-0.1,0-0.1-0.1s0-0.1,0-0.1v-4.5c0,0,0-0.1,0-0.1c0,0,0,0,0.1-0.1c0,0,0.1,0,0.2,0
		c0.1,0,0.2,0,0.3,0c0.1,0,0.2,0,0.3,0c0.1,0,0.1,0,0.2,0c0,0,0.1,0,0.1,0.1s0,0.1,0,0.1v0.5c0.3-0.3,0.5-0.5,0.8-0.6
		c0.3-0.1,0.5-0.2,0.8-0.2c0.3,0,0.6,0.1,0.8,0.2s0.4,0.2,0.5,0.4c0.1,0.2,0.2,0.4,0.3,0.6c0.1,0.2,0.1,0.5,0.1,0.8V17.7z"/>
	<path d="M205.8,17.3c0,0.1,0,0.3,0,0.3c0,0.1,0,0.1-0.1,0.2c0,0-0.1,0.1-0.1,0.1c-0.1,0-0.1,0-0.2,0.1s-0.2,0-0.3,0s-0.2,0-0.3,0
		c-0.3,0-0.5,0-0.7-0.1c-0.2-0.1-0.4-0.2-0.5-0.3s-0.2-0.3-0.3-0.5c-0.1-0.2-0.1-0.4-0.1-0.7v-2.3h-0.6c-0.1,0-0.1,0-0.2-0.1
		c0-0.1-0.1-0.2-0.1-0.4c0-0.1,0-0.2,0-0.2c0-0.1,0-0.1,0-0.2c0,0,0-0.1,0.1-0.1c0,0,0.1,0,0.1,0h0.6v-1c0,0,0-0.1,0-0.1
		c0,0,0.1,0,0.1-0.1c0.1,0,0.1,0,0.2,0c0.1,0,0.2,0,0.3,0c0.1,0,0.2,0,0.3,0c0.1,0,0.2,0,0.2,0s0.1,0,0.1,0.1c0,0,0,0.1,0,0.1v1h1
		c0,0,0.1,0,0.1,0c0,0,0,0,0.1,0.1c0,0,0,0.1,0,0.2c0,0.1,0,0.1,0,0.2c0,0.2,0,0.3-0.1,0.4c0,0.1-0.1,0.1-0.2,0.1h-1v2.1
		c0,0.2,0,0.4,0.1,0.6c0.1,0.1,0.2,0.2,0.4,0.2c0.1,0,0.1,0,0.2,0s0.1,0,0.1,0s0.1,0,0.1,0c0,0,0.1,0,0.1,0c0,0,0,0,0.1,0
		c0,0,0,0,0,0.1c0,0,0,0.1,0,0.1C205.8,17.1,205.8,17.2,205.8,17.3z"/>
</g>
<path class="st8" d="M45,13c0,2.8-2.2,4.9-4.9,4.9c-2.7,0-4.9-2.1-4.9-4.9c0-2.8,2.2-4.9,4.9-4.9C42.8,8.1,45,10.2,45,13z M42.9,13
	c0-1.7-1.3-2.9-2.7-2.9s-2.7,1.2-2.7,2.9c0,1.7,1.3,2.9,2.7,2.9S42.9,14.7,42.9,13z"/>
<path class="st9" d="M55.5,13c0,2.8-2.2,4.9-4.9,4.9s-4.9-2.1-4.9-4.9c0-2.8,2.2-4.9,4.9-4.9S55.5,10.2,55.5,13z M53.4,13
	c0-1.7-1.3-2.9-2.7-2.9s-2.7,1.2-2.7,2.9c0,1.7,1.3,2.9,2.7,2.9S53.4,14.7,53.4,13z"/>
<path class="st10" d="M65.6,8.4v8.7c0,3.6-2.1,5-4.6,5c-2.4,0-3.8-1.6-4.3-2.9l1.9-0.8c0.3,0.8,1.1,1.7,2.4,1.7c1.6,0,2.6-1,2.6-2.8
	v-0.7h-0.1c-0.5,0.6-1.4,1.1-2.6,1.1c-2.4,0-4.6-2.1-4.6-4.8c0-2.7,2.2-4.9,4.6-4.9c1.2,0,2.1,0.5,2.6,1.1h0.1V8.4L65.6,8.4
	L65.6,8.4z M63.7,13c0-1.7-1.1-3-2.6-3c-1.5,0-2.7,1.2-2.7,3c0,1.7,1.2,2.9,2.7,2.9C62.6,15.9,63.7,14.7,63.7,13z"/>
<path class="st11" d="M68.9,3.3v14.2h-2.1V3.3L68.9,3.3z"/>
<path class="st8" d="M77,14.6l1.7,1.1c-0.5,0.8-1.8,2.1-4,2.1c-2.8,0-4.8-2.1-4.8-4.9c0-2.9,2.1-4.9,4.6-4.9c2.5,0,3.7,2,4.2,3.1
	l0.2,0.6l-6.5,2.7c0.5,1,1.3,1.5,2.4,1.5C75.7,15.9,76.4,15.4,77,14.6L77,14.6z M71.9,12.8l4.3-1.8c-0.2-0.6-1-1-1.8-1
	C73.4,10,71.9,11,71.9,12.8z"/>
<path class="st10" d="M27.4,11.7V9.7h6.9c0.1,0.4,0.1,0.8,0.1,1.2c0,1.5-0.4,3.5-1.8,4.8c-1.3,1.4-3,2.1-5.3,2.1
	c-4.2,0-7.6-3.4-7.6-7.5s3.5-7.5,7.6-7.5c2.3,0,3.9,0.9,5.2,2.1l-1.5,1.5c-0.9-0.8-2.1-1.5-3.7-1.5c-3,0-5.4,2.4-5.4,5.5
	s2.4,5.5,5.4,5.5c2,0,3.1-0.8,3.8-1.5c0.6-0.6,1-1.4,1.1-2.5L27.4,11.7z"/>
<g>
	<path d="M44.6,40.5h2.1v2.2h-2.1v3.6h-2.8v-3.6h-7.4L34.3,41l7.3-10.9h2.9V40.5z M37.3,40.5h4.5v-6.8l-0.2,0.4L37.3,40.5z"/>
	<path d="M50.6,43.4c0.5,0,0.9,0.1,1.2,0.4c0.3,0.3,0.4,0.6,0.4,1.1c0,0.4-0.1,0.8-0.4,1c-0.3,0.3-0.7,0.4-1.2,0.4
		c-0.5,0-0.9-0.1-1.2-0.4c-0.3-0.3-0.4-0.6-0.4-1.1c0-0.4,0.1-0.8,0.4-1.1C49.6,43.5,50.1,43.4,50.6,43.4z"/>
	<path d="M66.6,31.6l-6.8,14.7h-3l6.8-14h-8.8v-2.2h11.8V31.6z"/>
</g>
<path class="st12" d="M54.7,74.4l-4.9-2.7c-0.2-0.1-0.3-0.1-0.5,0l-5,2.6c-0.4,0.2-0.8-0.1-0.8-0.6l1-5.5c0-0.2,0-0.3-0.1-0.5l-4-4
	c-0.3-0.3-0.1-0.8,0.3-0.9l5.6-0.7c0.2,0,0.3-0.1,0.4-0.3l2.6-5c0.2-0.4,0.8-0.4,0.9,0l2.4,5.1c0.1,0.2,0.2,0.3,0.4,0.3l5.6,0.9
	c0.4,0.1,0.6,0.6,0.3,0.9l-4.1,3.9c-0.1,0.1-0.2,0.3-0.2,0.5l0.9,5.6C55.5,74.3,55.1,74.6,54.7,74.4z"/>
<path class="st12" d="M77.8,64.1l-4.9-2.7c-0.2-0.1-0.3-0.1-0.5,0l-5,2.6c-0.4,0.2-0.8-0.1-0.8-0.6l1-5.5c0-0.2,0-0.3-0.1-0.5l-4-4
	c-0.3-0.3-0.1-0.8,0.3-0.9l5.6-0.7c0.2,0,0.3-0.1,0.4-0.3l2.6-5c0.2-0.4,0.8-0.4,0.9,0l2.4,5.1c0.1,0.2,0.2,0.3,0.4,0.3l5.6,0.9
	c0.4,0.1,0.6,0.6,0.3,0.9l-4.1,3.9c-0.1,0.1-0.2,0.3-0.2,0.5l0.9,5.6C78.6,63.9,78.2,64.3,77.8,64.1z"/>
<path class="st12" d="M94.5,45.9l-4.9-2.7c-0.2-0.1-0.3-0.1-0.5,0l-5,2.6c-0.4,0.2-0.8-0.1-0.8-0.6l1-5.5c0-0.2,0-0.3-0.1-0.5l-4-4
	c-0.3-0.3-0.1-0.8,0.3-0.9l5.6-0.7c0.2,0,0.3-0.1,0.4-0.3l2.6-5c0.2-0.4,0.8-0.4,0.9,0l2.4,5.1c0.1,0.2,0.2,0.3,0.4,0.3l5.6,0.9
	c0.4,0.1,0.6,0.6,0.3,0.9l-4.1,3.9c-0.1,0.1-0.2,0.3-0.2,0.5l0.9,5.6C95.4,45.8,94.9,46.1,94.5,45.9z"/>
<path class="st12" d="M22.4,64.1l4.9-2.7c0.2-0.1,0.3-0.1,0.5,0l5,2.6c0.4,0.2,0.8-0.1,0.8-0.6l-1-5.5c0-0.2,0-0.3,0.1-0.5l4-4
	c0.3-0.3,0.1-0.8-0.3-0.9l-5.6-0.7c-0.2,0-0.3-0.1-0.4-0.3l-2.6-5c-0.2-0.4-0.8-0.4-0.9,0l-2.4,5.1c-0.1,0.2-0.2,0.3-0.4,0.3
	l-5.6,0.9c-0.4,0.1-0.6,0.6-0.3,0.9l4.1,3.9c0.1,0.1,0.2,0.3,0.2,0.5l-0.9,5.6C21.5,63.9,22,64.3,22.4,64.1z"/>
<path class="st12" d="M5.6,45.9l4.9-2.7c0.2-0.1,0.3-0.1,0.5,0l5,2.6c0.4,0.2,0.8-0.1,0.8-0.6l-1-5.5c0-0.2,0-0.3,0.1-0.5l4-4
	c0.3-0.3,0.1-0.8-0.3-0.9l-5.6-0.7c-0.2,0-0.3-0.1-0.4-0.3l-2.6-5c-0.2-0.4-0.8-0.4-0.9,0l-2.4,5.1c-0.1,0.2-0.2,0.3-0.4,0.3
	l-5.6,0.9c-0.4,0.1-0.6,0.6-0.3,0.9l4.1,3.9c0.1,0.1,0.2,0.3,0.2,0.5l-0.9,5.6C4.8,45.8,5.3,46.1,5.6,45.9z"/>
</svg>
